<?xml version="1.0" encoding="UTF-8" standalone="no"?>
<!-- Created with Inkscape (http://www.inkscape.org/) -->

<svg
   width="142.52553mm"
   height="125.44038mm"
   viewBox="0 0 142.52553 125.44038"
   version="1.1"
   id="svg5"
   inkscape:version="1.1.2 (b8e25be833, 2022-02-05)"
   sodipodi:docname="waricon.svg"
   xmlns:inkscape="http://www.inkscape.org/namespaces/inkscape"
   xmlns:sodipodi="http://sodipodi.sourceforge.net/DTD/sodipodi-0.dtd"
   xmlns="http://www.w3.org/2000/svg"
   xmlns:svg="http://www.w3.org/2000/svg">
  <sodipodi:namedview
     id="namedview7"
     pagecolor="#ffffff"
     bordercolor="#666666"
     borderopacity="1.0"
     inkscape:pageshadow="2"
     inkscape:pageopacity="0.0"
     inkscape:pagecheckerboard="0"
     inkscape:document-units="mm"
     showgrid="false"
     inkscape:zoom="0.90583672"
     inkscape:cx="172.76844"
     inkscape:cy="211.95873"
     inkscape:window-width="1920"
     inkscape:window-height="1017"
     inkscape:window-x="-8"
     inkscape:window-y="-8"
     inkscape:window-maximized="1"
     inkscape:current-layer="layer1" />
  <defs
     id="defs2" />
  <g
     inkscape:label="Layer 1"
     inkscape:groupmode="layer"
     id="layer1"
     transform="translate(-16.038312,-17.010007)">
    <g
       id="g947"
       transform="matrix(1.9196793,0,0,1.9196793,-227.67564,-4.8743367)">
      <path
         id="path1597"
         style="stroke-width:4.27069"
         d="m 703.81055,206.27344 c -0.42707,0 -0.4284,6.6e-4 -0.85547,0.42773 -0.85414,0.42707 -1.28063,0.85418 -2.13477,1.28125 l -2.99023,2.13477 c -1.28121,0.85414 -2.56121,2.13676 -2.98828,3.41797 -1.28121,0.85413 -2.98961,1.70707 -3.84375,2.98828 -0.42707,0.42707 -0.85418,0.85547 -1.28125,0.85547 -0.85414,0.42707 -1.28192,0.42644 -1.70899,0.85351 -1.70827,1.28121 -3.41672,2.1361 -5.125,2.99024 -0.85414,0.42707 -1.70769,0.85289 -2.13476,1.70703 l -1.28125,2.5625 -0.42774,0.42773 h -2.5625 c -0.85414,0.42707 -1.27996,0.42645 -1.70703,0.85352 -0.42707,0.42707 -4e-5,1.28191 -1.28125,1.70898 0,-0.42707 -0.42773,-0.4284 -0.42773,-0.85547 l -0.42578,-0.42578 c 0,0 -0.42774,-10e-4 -0.42774,0.42578 -0.42707,0.42707 -0.42773,0.4284 -0.42773,0.85547 -0.42707,0 -0.42645,-10e-4 -0.85352,0.42578 -0.42707,0 -0.42645,6.7e-4 -0.85351,0.42774 -0.42707,0.42707 -0.85419,0.42644 -1.28125,0.85351 -0.42707,0 -0.85419,-0.42578 -1.28125,-0.42578 h -0.85547 v 0.42578 c 0.85414,0.42707 1.70836,1.28258 2.5625,2.13672 v 0.85352 c 0,0.42707 -0.42578,0.42773 -0.42578,0.42773 -0.42707,0 -0.4284,-10e-4 -0.85547,-0.85547 l -0.42578,-0.42578 c 0,0 -0.4284,-10e-4 -0.85547,0.42578 l -0.85352,-0.85351 c -0.42707,-0.42707 -1.28063,-0.85481 -2.13476,-0.42774 -0.42707,0 -0.4284,6.7e-4 -0.85547,0.42774 h -0.42578 c -0.42707,0 -0.4284,0.42773 -0.85547,0.42773 -0.42707,0 -0.42645,0.42578 -0.85352,0.42578 v 0.42774 c 0,1.70827 6.7e-4,3.41606 0.42774,4.69726 v 7.6875 c 0,2.13535 -0.4284,4.69864 -0.85547,6.83399 -0.42707,1.70827 -0.42707,3.8425 0,5.55078 v 2.13672 c 0,2.13534 -0.42578,3.84317 -0.42578,5.97851 0,0.42707 0.42578,0.85418 0.42578,1.28125 0,0.42707 0.42773,0.85352 0.42773,0.85352 v 0.42773 c 0,0.42707 0.42774,0.42645 0.42774,0.85352 0,0.42707 0.42578,0.85418 0.42578,1.28125 0.85414,0.42707 1.70836,0.42645 2.5625,0.85351 0.42707,0 0.85418,0.42774 1.28125,0.42774 h 1.28125 c 0.42707,-0.42707 0.85418,-0.42645 1.28125,-0.85352 0.42707,0 0.85418,-0.001 1.28125,0.42578 h 0.85547 l 0.42578,0.42774 h 1.28125 c 0.85414,0.42707 1.28062,0.42645 2.13476,0.85351 h 0.85547 c 0,0 0.42578,10e-4 0.42578,-0.42578 2.13535,-0.42707 4.27219,-0.42773 5.98047,-0.42773 0.42707,0 0.85289,6.6e-4 1.70703,0.42773 v 0.42578 h 1.70899 c 0.42707,0 0.85418,-0.42578 1.28125,-0.42578 h 1.70898 c 0,0 0.42707,-0.42773 0,-0.42773 0,0 -6.6e-4,-0.42774 -0.42773,-0.42774 0,-0.42706 6.6e-4,-0.42578 0.42773,-0.42578 h 1.28125 c 0.42707,0 0.85289,0.42578 1.70703,0.42578 h 2.5625 c 0,0 0.42774,10e-4 0.42774,-0.42578 0.42707,0 1.27996,-0.001 1.70703,0.42578 h 1.28125 c 0,0 0.42773,10e-4 0.42773,-0.42578 0,0 0.42774,-6.6e-4 0.42774,-0.42773 v -0.42774 c 0,-0.42706 0.42578,-0.85351 0.42578,-0.85351 h 1.28125 c 0.42707,0.42707 0.85547,0.42645 0.85547,0.85351 0,0.42707 0.42578,0.4284 0.42578,0.85547 -0.42707,0.85414 -0.42583,0.85418 -1.70703,1.28125 -0.42707,0 -0.85418,-0.42773 -1.28125,-0.42773 h -0.42774 v 0.42773 c 0,0 6.7e-4,0.42578 0.42774,0.42578 0,0 0.42578,6.7e-4 0.42578,0.42774 h -0.42578 c 0.42707,0 0.85418,0.42773 1.28125,0.42773 h 2.5625 c 0.42707,0 0.42644,-0.42773 0.85351,-0.42773 h 0.85352 c 0,0.42707 0.42773,0.85351 0.42773,0.85351 l 0.42774,0.42774 c 0.85414,0.85414 2.13414,0.85418 2.98828,1.28125 h 4.69922 c 0.42707,0 0.85289,0.42773 1.70703,0.42773 h 2.5625 c 1.70827,0 3.41606,-0.42773 4.69726,-0.42773 0.85414,0 1.28258,0.42773 2.13672,0.42773 h 1.28125 l 0.85352,-0.42773 c 0.42707,0 0.85418,-6.7e-4 1.28125,-0.42774 h 11.53125 v -0.85351 h 0.85351 c 0.42707,0 0.42645,0.42773 0.85352,0.42773 0.42707,0.42707 0.4284,0.85418 0.85547,1.28125 h 1.28125 c 0,-0.42707 -10e-4,-1.28258 0.42578,-2.13672 0,0 0.42773,6.7e-4 0.42773,0.42774 v 0.85351 c 0.42707,0.42707 1.28192,0.42774 1.70899,0.42774 h 0.42578 c 0,0 0.42773,6.6e-4 0.42773,0.42773 0.42707,0 0.85418,-6.6e-4 1.28125,-0.42773 0.85414,-0.42707 2.13477,-0.85352 2.13477,-0.85352 0,-0.42707 0.4284,-0.42773 0.85547,-0.42773 0.85414,-0.42707 1.28063,0 2.13476,0 0.42707,0 0.85418,-0.42774 1.28125,-0.42774 h 1.28125 c 0.85414,0 1.28063,-0.42578 2.13477,-0.42578 h 5.55273 c 0.42707,0 0.85418,-0.42773 1.28125,-0.42773 h 0.85352 l 0.42773,-0.42774 c 0.42707,-0.42706 1.27994,6.7e-4 1.70704,0.42774 h 2.13671 c 0.42707,0 0.85352,-0.42774 0.85352,-0.42774 0.85414,-0.42706 2.13481,-0.42706 3.41601,0 h 1.28126 c 0.42706,0 0.85484,-0.42578 1.70898,-0.42578 h 2.13476 l 1.28126,-1.28125 c 0,0 6.6e-4,-0.42773 0.42773,-0.42773 0.42707,-0.85414 0.42707,-1.7077 0,-2.13477 -0.42707,-0.42707 -0.85418,-0.4284 -1.28125,-0.85547 l -0.42774,-0.42578 c 0,-0.42707 6.7e-4,-0.4284 0.42774,-0.85547 h 0.85352 c 0.42706,0 0.85418,0.42774 1.28124,0.42774 a 2.3488799,2.3488799 0 0 0 2.13477,1.28125 h 3.84375 c -0.42707,0 -0.42642,-0.42774 -0.85352,-0.42774 0,0 0.42774,-0.42644 0.42774,-0.85351 -0.85414,0 -1.28258,-0.42774 -2.13672,-0.42774 -0.85414,0 -1.28063,-0.85418 -2.13476,-1.28125 h -0.42774 c 0,-0.42706 -0.42578,-0.85351 -0.42578,-0.85351 h -0.42774 l -0.42773,-0.42774 c -2.13534,-0.42706 -2.98895,-0.42578 -3.41601,-0.42578 -0.4271,0 -0.42645,0.42578 -0.85352,0.42578 0.42707,0.85414 -10e-4,1.70965 0.42578,2.13672 0.85414,1.70828 0.42772,2.98961 -0.85352,3.84375 h -0.42773 c -1.70828,-0.42707 -3.41544,-0.8548 -5.55078,-0.42773 h -0.85352 v -0.85352 l 0.42579,-0.42773 h 2.5625 c 0.42706,0 0.85418,-0.42711 1.28124,-1.28125 v -2.13477 h -1.70898 l -1.2793,1.28125 c -0.42707,-0.42707 -0.85418,-0.85547 -1.28125,-0.85547 -0.85413,0 -1.70965,-0.42578 -2.13671,-0.42578 -0.4271,0.42707 -1.27997,0.42645 -1.70704,0.85352 h -2.5625 c -0.42707,0 -0.85548,0.42645 -0.85546,0.85351 0,0.42707 -0.42579,0.4284 -0.42579,0.85547 -0.42707,0.42707 -0.42837,0.42578 -0.85547,0.42578 h -0.85351 c -0.42707,0 -0.85418,0.4284 -1.28125,0.85547 h -0.42774 c -0.42706,0 -0.85418,-0.42773 -1.28124,-0.42773 0.42706,-0.42707 0.42773,-0.42645 0.42773,-0.85352 -0.42707,-0.42707 -0.85418,0 -1.28125,0 -0.42707,0 -0.42645,-0.001 -0.85352,0.42578 h -5.55273 c -0.42707,0 -0.42645,6.7e-4 -0.85352,0.42774 h -0.85351 c -0.42707,0 -0.85418,0.42773 -1.28125,0.42773 h -0.85547 v -1.28125 c 0.85414,-0.42707 1.28258,-0.4284 2.13672,-0.85547 0,-0.42706 0.42578,-0.42644 0.42578,-0.85351 0.42707,0 0.4284,-0.42774 0.85547,-0.42774 0.85414,-0.42706 1.70836,6.7e-4 2.5625,0.42774 h 1.27929 c 0.4271,-0.42707 0.4284,-0.42774 0.85547,-0.42774 h 0.85352 c 0.85414,0 1.70903,-0.42578 2.99023,-0.42578 0.85414,-0.42707 1.28063,-0.85418 2.13477,-1.28125 0.42707,-0.42707 0.85418,-0.42644 1.28125,-0.85351 0.85414,-0.85414 1.70836,-1.28125 2.5625,-1.28125 0.85414,-0.42707 1.70903,-0.42774 2.99023,-0.42774 0.42707,-0.42707 0.42645,-0.85418 0.85352,-1.28125 l 0.42773,-0.42773 c 0.42707,0 0.85418,6.6e-4 1.28125,0.42773 0.42707,0 0.8529,0.42774 1.70703,0.42774 h 0.85352 c 0.42707,-0.85414 0.4284,-1.28258 0.85547,-2.13672 0,-0.42707 0.42578,-0.42578 0.42578,-0.42578 0,0 0.4284,-10e-4 0.85547,0.42578 1.70828,0 2.98899,0.42836 4.69726,-0.42578 0,-0.42707 0.42774,-0.85547 0.42774,-0.85547 1.70828,0 3.8425,-0.42578 5.55078,-0.42578 0.85414,0 1.709,-0.42774 2.99024,-0.42774 h 0.42773 c 0.42707,-0.42707 0.85289,-0.42644 1.70703,-0.85351 0.85414,-0.85414 1.70836,-1.28258 2.5625,-2.13672 l 0.85352,-0.85352 v -0.42773 c -0.42707,-0.42707 -0.42707,-1.27996 0,-1.70703 l 2.99023,-3.41797 c 0,-0.42707 0.42777,-0.85418 0.42773,-1.28125 -0.42706,-0.42707 -0.85546,-0.85289 -0.85546,-1.70703 0,-0.42707 6.6e-4,-0.42645 0.42773,-0.85352 v -0.85547 c 0,0 -6.6e-4,-0.42578 -0.42773,-0.42578 0,0 -0.42582,-6.6e-4 -0.42578,-0.42773 a 2.3488799,2.3488799 0 0 1 -1.28126,2.13476 h -0.42773 c -0.42707,0 -0.85351,-0.42707 -0.85351,0 0,0 -6.7e-4,0.42645 -0.42774,0.85352 0,0.42707 -6.6e-4,0.85418 -0.42773,1.28125 h -1.70703 v 0.85547 c -0.4271,0 -0.42645,0.42578 -0.85352,0.42578 h -0.85547 c -0.85414,-0.42707 -1.2806,0 -2.13477,0 l -0.42773,-0.42578 c -0.42707,0 -0.42645,-0.42774 -0.85351,-0.42774 -2.13538,0.42707 -2.13481,0.42707 -3.41602,0 -0.42707,0 -0.4284,0.42774 -0.85547,0.42774 -1.28121,0 -2.13481,-0.85547 -3.41601,-0.85547 l -0.85352,0.85547 a 3.245725,3.245725 0 0 1 -1.70898,-0.85547 c -0.4271,-0.42707 -0.85485,-0.85352 -1.70899,-0.85352 h -0.85351 c -1.70831,0.42707 -3.41673,0.42769 -5.125,-0.85351 -0.4271,-0.42707 -0.85416,-0.42774 -1.28126,-0.42774 -0.85413,0 -1.70833,-0.42578 -2.5625,-0.42578 -0.85413,0 -1.70769,-0.4284 -2.13476,-0.85547 -0.42707,0 -0.42645,-0.42578 -0.85352,-0.42578 h -1.70898 c -0.85414,-0.42707 -2.13607,-10e-4 -2.99024,-0.85547 h -2.5625 c -0.85413,-0.42707 -1.28062,-1.28125 -2.13476,-1.28125 -0.42707,0 -0.85289,0.42774 -1.70703,0.42774 h -2.99024 a 3.245725,3.245725 0 0 0 -1.70898,0.85351 c 0,0 -0.42578,6.7e-4 -0.42578,0.42774 -0.85414,0 -1.28129,-0.85418 -2.5625,-1.28125 -0.85414,0 -2.13676,-6.7e-4 -3.41797,-0.42774 -1.28121,0 -2.56254,-0.85351 -3.84375,-0.85351 h -0.85352 c -1.70827,-0.85414 -3.84317,-1.28192 -5.97851,-1.70899 h -0.42774 c 0,0 -0.42578,6.7e-4 -0.42578,0.42774 v 0.42773 c 0.42707,0.42707 0.85418,0.42645 1.28125,0.85352 0,0 2.13481,2.13609 3.41602,2.99023 v 0.42578 c 0,0.42707 -0.42645,0.85418 -0.85352,1.28125 h -1.70898 c -0.42707,0.42707 -0.85418,0.42645 -1.28125,0.85352 -0.85414,0 -2.13543,-0.42578 -2.5625,-0.42578 -0.85414,0 -1.28192,0.42644 -1.70899,0.85351 h -0.42578 c -0.42707,-0.42707 -1.28258,-0.85351 -2.13672,-0.85351 -0.42707,0 -0.42644,0.42578 -0.85351,0.42578 -0.42707,0 -0.85352,0.42773 -0.85352,0.42773 -0.85414,0 -1.70965,6.7e-4 -2.13672,0.42774 h -0.85351 c -1.28121,-0.42707 -2.56254,-0.42774 -3.84375,-0.42774 -0.85414,-0.42707 -1.70703,-1.28062 -1.70703,-2.13476 0,-0.42707 -0.42774,-0.42645 -0.42774,-0.85352 -0.42707,-0.42707 -1.28191,-0.42773 -1.70898,-0.42773 -0.42707,0 -0.42578,-0.42774 -0.42578,-0.42774 0,0 0.42578,0.001 0.42578,-0.42578 l 0.85547,-0.85547 v -0.85351 c 0.42707,0 0.85418,6.6e-4 1.28125,0.42773 0,0.42707 -0.42774,0.85418 -0.42774,1.28125 l 0.42774,0.42578 v 0.85547 h 0.42578 l 1.28125,-1.28125 c 0,-0.42707 0.42773,-0.4284 0.42773,-0.85547 1.28121,-0.85414 1.28059,-0.85422 0.85352,-2.5625 h -0.42578 v -0.42578 c 0.42707,-1.70827 0.85289,-2.56316 1.70703,-2.99023 h 0.42773 c 0,0 -10e-4,-0.42774 0.42578,-0.42774 h 1.70899 c 0.42707,0 0.85351,0.42774 0.85351,0.42774 l 0.42774,-0.42774 h 0.85351 c 0.42707,-0.42707 0.4284,-0.42578 0.85547,-0.42578 h 0.85352 l 0.42773,0.42578 c 0,0 0.42578,6.7e-4 0.42578,0.42774 0,-0.85414 10e-4,-1.28192 0.85547,-1.70899 0.85414,-0.85414 2.13415,-1.28062 2.98828,-2.13476 0.42707,-0.42707 0.85418,-0.85352 1.28125,-0.85352 -0.85413,-1.28121 -2.13414,-1.70965 -2.98828,-2.13672 -0.85414,-0.42707 -2.13676,-0.85351 -3.41797,-0.85351 -1.2812,-0.42707 -2.1348,-0.85352 -3.41601,-0.85352 -0.85414,0 -1.28063,-6.6e-4 -2.13477,-0.42773 -0.85414,0 -1.28062,-0.42578 -2.13476,-0.42578 -0.85414,0 -1.70836,-6.7e-4 -2.5625,-0.42774 0.42707,-2.13534 0.4264,-2.13614 -0.42774,-4.27148 -0.42707,-2.13535 -1.28191,-4.27091 -1.70898,-6.40625 -0.42707,-1.70828 -0.85289,-3.41606 -1.70703,-4.69727 0,-0.42707 -0.85547,-1.28191 -0.85547,-1.70898 z m 4.53711,29.27929 c 0.22414,-0.008 0.43441,0.036 0.58789,0.18946 l 0.42578,0.42773 v 0.85352 h -0.42578 c -0.85414,0 -1.28192,0.42773 -1.70899,0.42773 0,0.85414 -6.6e-4,1.27996 -0.42773,1.70703 v -1.70703 h 0.42773 l -0.42773,-0.42773 c 0,-0.42707 0.001,-0.42645 -0.42578,-0.85352 0.42707,0 0.42644,-6.6e-4 0.85351,-0.42773 0.27359,0 0.72153,-0.17576 1.1211,-0.18946 z m 43.29296,9.58399 h 0.85547 c 1.28121,0 2.13481,6.6e-4 3.41602,0.42773 0.42707,0 0.85418,0.42774 1.28125,0.42774 0.42707,0 1.28191,0.42578 1.70898,0.42578 0.42707,0 0.85418,6.6e-4 1.28125,0.42773 a 3.8436217,3.8436217 0 0 1 2.13477,0.42774 c 2.13534,0.85414 4.27157,0.85418 6.83398,1.28125 -0.42707,0 -0.4284,0.42578 -0.85546,0.42578 h -5.97852 l -2.5625,1.28125 h -1.28125 c -1.70828,-0.42707 -2.98899,-0.42578 -4.69727,-0.42578 -0.42707,0.42707 -0.4284,0.85418 -0.85546,1.28125 h -4.26954 l -0.42773,-0.42774 c -0.42707,-0.42707 -0.42578,-0.85418 -0.42578,-1.28125 -0.42707,-0.42707 -1.28192,-0.42773 -1.70899,-0.42773 -0.42707,0.42707 -1.28191,0.4284 -1.70898,0.85547 -0.42707,0 -0.85418,-0.42774 -1.28125,-0.42774 v -0.42773 c 0,-0.85414 0.42711,-2.13477 1.28125,-2.13477 h 2.13672 c 0.42707,0 0.85418,-6.6e-4 1.28125,-0.42773 0.42707,0 0.85418,-0.42578 1.28125,-0.42578 0.42707,0 0.85418,-0.42774 1.28125,-0.42774 0.42707,0 0.85223,-0.42773 1.27929,-0.42773 z m 15.6504,20.73828 c 0.1101,-0.0126 0.0182,0.18945 -0.2754,0.18945 0,0.42707 -0.42578,0.85352 -0.42578,0.85352 -0.42707,0 -0.85418,6.6e-4 -1.28125,0.42773 -0.42707,0 -0.4284,0.42578 -0.85547,0.42578 0.85414,-1.2812 1.70837,-1.70703 2.5625,-1.70703 0.13346,-0.13346 0.22535,-0.18372 0.2754,-0.18945 z"
         transform="matrix(0.23415416,0,0,0.23415416,13.9,11.4)" />
      <path
         d="m 138.3,33.1 c 0,0 0,0.1 -0.1,0.1 0.1,0 0.1,-0.1 0.1,-0.1 m 9.9,2.8 c 0,0 -0.1,0 0,0 0,0 -0.1,0 -0.1,-0.1 v -0.1 c -0.1,-0.1 -0.1,-0.1 0,-0.2 h 0.1 c 0,0 0.1,0 0.1,0.1 0.1,0.1 0.1,0.1 0,0.2 -0.1,0 -0.1,0.1 -0.1,0.1 m 4.8,-5.3 c -0.1,0.1 -0.1,0.1 -0.2,0.1 -0.1,0 -0.1,0 -0.2,-0.1 0,0 0,-0.1 -0.1,-0.1 l 0.2,-0.2 c 0.2,0 0.3,0.1 0.3,0.2 v 0.1 m 4.3,-2.5 h -0.2 L 157,28 v -0.1 c 0.1,0 0.1,-0.1 0.2,-0.1 0.1,0 0.1,0 0.2,0.1 0,0.1 0,0.2 -0.1,0.2 m 0.9,-0.4 -0.1,0.1 c -0.1,0.1 -0.3,0 -0.4,-0.1 v -0.1 c 0,-0.1 0.1,-0.2 0.1,-0.4 0,-0.1 0.1,-0.1 0.2,-0.1 0.1,0.2 0.3,0.4 0.2,0.6 m 11.9,-2.1 h -0.2 l -0.1,-0.1 c 0,-0.1 0,-0.1 0.1,-0.2 l 0.1,-0.1 0.1,0.1 c 0.1,0.1 0.1,0.1 0.1,0.2 -0.1,0 -0.1,0 -0.1,0.1 m 1.3,0.2 -0.1,0.1 c -0.2,-0.1 -0.3,-0.2 -0.3,-0.4 0,-0.1 0.1,-0.1 0.2,-0.2 0.1,0 0.2,0 0.3,0.1 v 0.3 c 0,-0.1 0,0 -0.1,0.1 0,-0.1 0,-0.1 0,0"
         id="path824" />
      <path
         d="M 198.7,68.6 Z"
         id="path826" />
      <path
         d="m 149.6,75.6 c -0.1,-0.1 -0.2,-0.1 -0.3,-0.2 -0.4,0 -0.8,0.1 -1.2,0.1 0,0.1 -0.1,0.1 -0.1,0.2 0.1,0.1 0.2,0.1 0.3,0.2 V 76 h 0.3 c 0.1,0 0.3,0 0.4,-0.1 0.2,0 0.3,-0.1 0.5,-0.1 v -0.1 c 0.1,0 0.1,-0.1 0.1,-0.1 m -14.9,-3.1 c -0.2,-0.1 -0.4,-0.1 -0.5,0 h -0.1 l -0.1,0.1 c 0,0.1 0,0.1 0.1,0.1 0.3,0.1 0.6,0 0.9,0 0.1,0 0.2,0 0.2,-0.1 v -0.1 c -0.2,0.1 -0.3,0 -0.5,0 M 127.2,67 c -0.1,0 -0.2,0 -0.2,0.1 -0.1,0.1 0,0.2 0,0.3 0.2,0 0.3,0.2 0.5,0.2 0,-0.1 0.1,-0.1 0.1,-0.2 L 127.2,67 m 8.4,6.1 c 0,0.1 0.1,0.1 0.1,0.2 0.3,0 0.3,0 0.3,-0.2 -0.1,-0.1 -0.2,-0.1 -0.4,0 m -2.8,-2 c -0.1,0 -0.1,-0.1 -0.2,-0.2 l -0.1,0.1 v 0.1 c 0.1,0.1 0.1,0.2 0.3,0.2 l 0.1,-0.1 v -0.1 c 0,0.1 0,0.1 -0.1,0 m -3.9,-2.3 c 0.1,0 0.1,-0.1 0.1,-0.2 0,-0.1 -0.1,-0.1 -0.2,0 l -0.1,0.1 c 0.1,0 0.2,0.1 0.2,0.1 m 23.6,6.6 c 0,0 -0.1,0 -0.1,0.1 0,0 0,0.1 0.1,0.2 0.1,0 0.1,0 0.2,-0.1 -0.1,-0.2 -0.1,-0.2 -0.2,-0.2 m -24.2,-7.7 c -0.1,0 -0.1,0 0,0 -0.1,0 -0.1,0.1 -0.1,0.1 0,0.1 0.1,0.1 0.2,0 -0.1,0 -0.1,0 -0.1,-0.1 m 0.2,1.4 c -0.1,0 -0.1,0 0,0 -0.1,0.1 0,0.2 0,0.2 v -0.2"
         id="path828" />
      <path
         d="M 168.2,73.6 Z"
         id="path830" />
      <path
         d="m 147.4,67.7 c 0.3,0.1 0.4,0.1 0.6,0.1 l 0.1,-0.1 c 0,-0.2 -0.2,-0.3 -0.3,-0.4 -0.4,-0.2 -0.7,-0.4 -1,-0.6 h -0.4 c -0.1,0 -0.2,0.1 -0.1,0.2 0,0 0,0.1 0.1,0.1 0.2,0.1 0.4,0.2 0.5,0.3 0.3,0.1 0.4,0.2 0.5,0.4 0,-0.1 0,-0.1 0,0 0,-0.1 0,-0.1 0,0 z m -4.6,1.3 c 0,-0.1 -0.3,-0.4 -0.5,-0.4 -0.1,0 -0.1,0.1 -0.2,0.1 v 0.2 c 0.1,0 0.4,0.2 0.6,0.2 0,-0.1 0.1,-0.1 0.1,-0.1"
         id="path832" />
      <path
         d="m 142.7,69.1 c -0.1,0 -0.1,0 0,0 0,0.1 0,0 0,0 m 0.4,5.7 c 0,0 -0.1,0 -0.1,0.1 -0.1,-0.1 -0.2,-0.1 -0.4,-0.1 l -0.2,0.2 c -0.1,-0.1 -0.2,-0.2 -0.3,-0.2 -0.1,-0.1 -0.3,-0.1 -0.4,0.1 v 0.2 h -0.2 l -0.1,0.1 v 0.2 c 0.1,0 0.2,0 0.2,-0.1 v -0.2 c 0.2,0.2 0.5,0.2 0.8,0.3 0.4,-0.1 0.4,-0.1 0.9,-0.1 0,-0.1 0,-0.2 0.1,-0.3 0,-0.1 0.1,-0.2 0.1,-0.3 -0.2,-0.1 -0.2,-0.1 -0.4,0.1 m -2.9,-0.6 c -0.2,0 -0.5,0.1 -0.7,0.1 v 0.1 c 0,0.1 0.1,0.2 0.3,0.3 0.1,0 0.2,-0.1 0.4,-0.1 0.1,0.1 0.2,0.1 0.2,0.2 0.1,0 0.1,-0.1 0.1,-0.1 v -0.1 c 0,-0.2 -0.1,-0.3 -0.3,-0.4 m 4.4,0.6 h -0.2 c 0,-0.1 0,-0.2 -0.1,-0.2 l -0.1,-0.1 -0.1,0.1 c 0,0 0,0.1 0.1,0.1 h 0.2 c 0.1,0.2 0.2,0.4 0.2,0.6 0,0.1 -0.1,0.1 -0.2,0.2 0.1,0.1 0.3,0.1 0.4,0 l 0.1,-0.1 c 0,-0.1 0.1,-0.2 0.1,-0.3 -0.1,0 -0.2,-0.1 -0.3,-0.1 0,0 0,-0.1 -0.1,-0.2 m 2.9,0.5 v 0.4 l 0.1,0.1 c 0,0 0.1,0 0.1,-0.1 0.1,-0.1 0,-0.2 -0.1,-0.3 0,-0.1 -0.1,-0.1 -0.1,-0.1 m -0.7,0 c 0,0 -0.1,0 -0.1,0.1 0,0 0,0.1 0.1,0.2 0.1,0 0.1,0 0.2,-0.1 0,-0.1 -0.1,-0.2 -0.2,-0.2 m -15.2,-7.7 c -0.3,-0.2 -0.8,-0.3 -1,-0.3 -0.1,0 -0.2,0.2 -0.2,0.2 0,0.1 0.5,0.1 0.5,0.2 0.3,0 0.2,0.1 0.2,0.2 h 0.5 c -0.1,0.1 0,-0.3 0,-0.3 m 1.4,0.5 c 0,0 0.1,-0.1 0.2,-0.1 v -0.1 c -0.1,-0.1 -0.3,-0.1 -0.3,0.1 v 0.1 c -0.1,0 0,0 0.1,0 m 7.9,-37.4 c 0,-0.1 0.1,-0.2 0.1,-0.2 h -0.1 l -0.1,0.1 c 0,-0.1 0,0 0.1,0.1 -0.1,-0.1 -0.1,-0.1 0,0 m 11.8,-10.1 h 0.2 c 0,0 0.1,0 0.1,-0.1 h 0.2 c 0.1,-0.1 0.1,-0.2 0.2,-0.3 0.1,-0.1 0.2,-0.1 0.3,-0.2 v -0.2 c 0.1,-0.1 0.1,-0.2 0.2,-0.3 -0.1,-0.1 -0.1,-0.3 -0.2,-0.4 v -0.3 c 0,-0.1 0.1,-0.2 0,-0.3 0,-0.1 -0.1,-0.1 -0.1,-0.2 V 18 c -0.1,-0.1 -0.2,-0.1 -0.3,-0.1 a 0.76,0.76 0 0 1 -0.4,0.2 c -0.1,0.3 -0.3,0.4 -0.5,0.5 -0.1,0.2 -0.2,0.5 -0.3,0.7 v 1 c 0.4,0.3 0.4,0.4 0.6,0.3 m 3,-2.7 c 0,0 0.1,-0.1 0,0 0.1,-0.1 0.1,-0.1 0,0 l 0.1,-0.1 c 0,0 0.1,0 0.1,-0.1 0.1,-0.1 0.1,-0.2 0.2,-0.3 0,-0.1 0.1,-0.1 0.1,-0.2 0.1,-0.1 0.1,-0.2 0.2,-0.3 l 0.2,-0.2 c 0.1,-0.1 0.1,-0.3 -0.1,-0.5 l -0.1,-0.1 V 16 c 0,-0.1 -0.2,-0.2 -0.3,-0.2 0,0 -0.1,0 -0.1,0.1 h -0.1 c -0.2,0.2 -0.3,0.4 -0.4,0.6 0,0.3 -0.2,0.5 -0.3,0.8 -0.1,0.1 0,0.3 0,0.4 0.1,0.3 0.3,0.2 0.5,0.2 m 2.5,0.8 c 0.1,-0.1 0.2,-0.1 0.4,-0.2 0.1,0 0.1,-0.1 0.2,-0.1 0.1,-0.1 0.2,-0.1 0.3,-0.2 l 0.1,-0.1 V 18 c 0.1,-0.1 0.3,-0.2 0.4,-0.3 v -0.2 c 0,-0.1 -0.1,-0.1 -0.2,-0.1 h -0.1 l -0.2,0.2 h -0.4 v -0.2 c -0.1,-0.1 -0.2,-0.3 -0.3,-0.3 v 0.2 c 0,0.1 0.1,0.2 0.1,0.3 -0.1,0 -0.1,0 -0.2,0.1 h -0.2 c -0.1,0 -0.1,0 -0.1,0.1 -0.1,0.2 -0.1,0.4 -0.2,0.6 0.1,0.1 0.2,0.3 0.4,0.3 m 2.1,-1.8 c 0.1,0 0.2,-0.1 0.3,-0.1 h 0.2 c 0.2,0 0.4,-0.1 0.5,-0.1 0,-0.1 0.1,-0.1 0.1,-0.2 v -0.2 c 0,0 0,-0.1 0.1,-0.1 -0.1,-0.1 -0.1,-0.1 -0.1,-0.2 -0.1,-0.1 -0.3,-0.2 -0.4,-0.1 -0.2,0.1 -0.3,0.1 -0.5,0.2 -0.1,0 -0.2,0.1 -0.4,0.2 -0.2,0.1 -0.2,0.3 -0.2,0.5 0.1,0 0.2,0.1 0.4,0.1 m -21.6,39.5 c 0.1,0 0.1,0.1 0.2,0.1 h 0.2 l 0.1,-0.1 c 0,0 0.1,0 0.1,-0.1 v -0.1 c 0.1,-0.1 0,-0.3 -0.1,-0.4 a 0.76,0.76 0 0 0 -0.4,-0.2 c -0.3,0.2 -0.3,0.2 -0.4,0.5 0,0.1 0.2,0.2 0.3,0.3 M 138,30.5 h 0.6 l 0.1,-0.1 c 0,-0.2 -0.1,-0.3 -0.2,-0.5 -0.1,-0.1 -0.3,-0.1 -0.4,-0.1 0,0 -0.1,0 -0.1,0.1 a 0.76,0.76 0 0 0 -0.2,0.4 c 0,0.2 0.1,0.3 0.2,0.2 m 24.3,-14.5 0.1,0.1 h 0.5 v -0.3 c 0,0 0,-0.1 -0.1,-0.1 l -0.3,-0.3 h -0.3 l -0.1,0.1 c 0,0.1 -0.1,0.2 -0.1,0.3 0.2,0.1 0.2,0.1 0.3,0.2"
         id="path834" />
      <path
         d="m 193.1,34.4 h 0.3 V 34 c -0.1,-0.1 -0.1,-0.3 -0.2,-0.4 h -0.4 c 0,0.1 -0.1,0.1 -0.1,0.1 v 0.1 a 0.55,0.55 0 0 0 0.3,0.5 c 0,0.1 0.1,0.1 0.1,0.1 M 157.3,16.3 h 0.3 l 0.1,-0.1 c 0.1,0 0.1,-0.1 0.2,-0.2 -0.1,-0.3 -0.2,-0.4 -0.5,-0.4 h -0.2 c -0.1,0 -0.2,0.1 -0.3,0.3 0.1,0.3 0.2,0.4 0.4,0.4 m 2.1,-2.6 c 0.1,0 0.1,0 0.2,-0.1 v -0.1 h 0.1 v -0.2 c 0,-0.1 -0.1,-0.2 -0.2,-0.3 -0.1,-0.1 -0.2,-0.1 -0.4,-0.1 -0.1,0 -0.2,0.1 -0.3,0.3 0.1,0.2 0.2,0.3 0.3,0.5 0.2,0 0.3,0.1 0.3,0 m 41.3,60.1 c 0.1,0 0.1,-0.1 0.2,-0.2 -0.1,-0.1 -0.1,-0.2 -0.2,-0.2 -0.1,0 -0.2,0.1 -0.3,0.1 -0.1,0 -0.2,-0.1 -0.3,-0.1 -0.2,0.1 -0.3,0.2 -0.3,0.4 L 200,74 h 0.3 v -0.1 c 0.2,0 0.3,0 0.4,-0.1 M 135.6,37.4 c 0.1,0 0.1,0.1 0.2,0.1 0.1,0 0.2,-0.1 0.2,-0.2 V 37 a 0.76,0.76 0 0 1 -0.2,-0.4 h -0.1 a 0.55,0.55 0 0 0 -0.3,0.5 c 0.1,0.2 0.1,0.3 0.2,0.3 m 59.6,2.9 h 0.2 l 0.1,-0.1 v -0.4 c -0.1,-0.2 -0.2,-0.3 -0.4,-0.3 -0.1,0.1 -0.2,0.3 -0.2,0.5 l 0.3,0.3 m -1.1,9.9 V 50 c 0,-0.1 -0.3,-0.2 -0.4,-0.2 -0.1,0.1 -0.1,0.2 -0.2,0.3 -0.1,0.1 -0.2,0.4 -0.2,0.4 l 0.1,0.1 h 0.2 c 0.1,-0.1 0.2,-0.2 0.3,-0.2 h 0.2 V 50.2 M 153.6,17.7 c 0.1,0.1 0.1,0 0.1,0 h 0.2 c 0,-0.1 0.1,-0.1 0.1,-0.2 v -0.1 c 0,0 0,-0.1 0.1,-0.1 0,-0.1 -0.1,-0.2 -0.2,-0.2 -0.1,-0.1 -0.3,-0.1 -0.4,0 -0.1,0 -0.1,0.1 -0.1,0.2 0,0.2 0.1,0.3 0.2,0.4 m -17.4,14.7 c 0,0 0,0.1 0,0 0,0.1 0.1,0.1 0,0 0.1,0.1 0.1,0.1 0,0 h 0.4 v -0.2 c 0,0 0,-0.1 0.1,-0.1 0,-0.2 -0.1,-0.3 -0.3,-0.4 h -0.2 c -0.1,0.1 -0.3,0.2 -0.3,0.4 0.1,0.2 0.2,0.3 0.3,0.3 m 4.2,-4.7 h 0.2 c 0.1,-0.1 0.1,-0.2 0,-0.4 -0.2,-0.1 -0.4,-0.2 -0.6,-0.2 l -0.1,0.1 v 0.1 c 0.2,0.2 0.3,0.3 0.5,0.4 m 53.1,23.5 c -0.1,-0.3 -0.3,-0.3 -0.6,-0.3 -0.1,0 -0.2,0.1 -0.2,0.2 0,0.1 0,0.2 0.1,0.2 h 0.5 c 0.1,0 0.2,-0.1 0.2,-0.1 m 7.7,21.6 V 72.6 L 201,72.4 c -0.1,0.1 -0.2,0.1 -0.2,0.1 a 0.76,0.76 0 0 0 -0.2,0.4 c 0,0.1 0,0.1 0.1,0.2 h 0.5 v -0.3 m -8.5,-14.3 c 0,0.1 0,0.1 0,0 h 0.3 c 0,0 0,-0.1 0.1,-0.1 0,-0.3 0,-0.3 -0.3,-0.4 -0.3,0.2 -0.4,0.3 -0.2,0.6 0,-0.1 0,-0.1 0.1,-0.1"
         id="path836" />
      <path
         d="M 137.4,33.1 Z"
         id="path838" />
      <path
         d="m 137.4,33.1 c -0.1,0 -0.1,-0.1 -0.2,-0.2 l -0.1,-0.1 c -0.1,-0.1 -0.2,-0.1 -0.3,0 -0.1,0 -0.1,0.1 -0.1,0.2 0,0.2 0.1,0.3 0.2,0.4 h 0.2 c 0.1,0 0.1,0 0.2,-0.1 0.1,0 0.1,-0.1 0.1,-0.2 m 22.5,-18.2 c 0,-0.1 -0.1,-0.2 -0.2,-0.2 h -0.2 c -0.1,0 -0.1,0.1 -0.1,0.1 l -0.1,0.1 c 0,0.1 -0.1,0.1 -0.1,0.2 l 0.1,0.1 h 0.6 v -0.3 m -21.5,14.7 h 0.3 v -0.2 l 0.1,-0.1 c 0,-0.2 0,-0.3 -0.1,-0.4 h -0.1 c -0.1,0 -0.1,0 -0.2,0.1 0,0.1 -0.1,0.2 -0.2,0.3 0,0.2 0.1,0.3 0.2,0.3 m 19.5,-2.4 c -0.1,0 -0.1,0 -0.2,0.1 -0.1,0.1 -0.1,0.2 -0.1,0.4 v 0.1 c 0.1,0.1 0.3,0.1 0.4,0.1 0,0 0.1,0 0.1,-0.1 0.1,-0.3 0,-0.5 -0.2,-0.6 M 177.7,75 c -0.1,0 -0.2,0.1 -0.3,0.1 -0.1,0 -0.2,0.1 -0.4,0.1 l -0.1,0.1 c 0,0 0,0.1 0.1,0.1 0.2,0.1 0.4,0.1 0.6,0 0.3,-0.1 0.3,-0.1 0.1,-0.4 m 2.9,-55.5 c 0,0.1 0,0.1 0,0 l 0.1,0.1 c 0.1,-0.1 0.3,-0.1 0.4,-0.2 v -0.1 a 0.76,0.76 0 0 0 -0.4,-0.2 c -0.1,0 -0.2,0.1 -0.2,0.2 -0.1,0.1 -0.1,0.1 0.1,0.2 M 138,54.1 c -0.1,-0.2 -0.2,-0.3 -0.4,-0.3 -0.1,0 -0.1,0.1 -0.2,0.1 -0.1,0.1 -0.1,0.2 0,0.3 l 0.2,0.2 h 0.2 c 0.1,-0.1 0.1,-0.2 0.2,-0.3 0,0.1 0,0 0,0 m 58.6,-10.5 c 0.1,0 0.2,-0.1 0.2,-0.1 0.1,-0.1 0.1,-0.1 0.1,-0.2 0,0 0,-0.1 -0.1,-0.1 0,0 -0.2,-0.2 -0.3,-0.1 l -0.1,0.1 v 0.1 c -0.1,0.1 -0.1,0.2 0,0.3 0,0 0.1,0.1 0.2,0 M 143.2,24.9 v -0.2 l 0.1,-0.1 c 0,-0.2 -0.1,-0.3 -0.2,-0.3 -0.2,0.1 -0.3,0.2 -0.3,0.5 0.1,0.1 0.2,0.1 0.3,0.1 h 0.1 m 32.9,-7.5 h 0.2 v -0.1 l 0.1,-0.1 c 0,-0.1 -0.1,-0.1 -0.1,-0.2 h -0.4 l -0.1,0.1 c 0,0.3 0,0.3 0.3,0.3 m -2.9,59.1 a 1.1,1.1 0 0 0 -0.8,0 c -0.1,0 -0.1,0.1 -0.2,0.1 v 0.1 h 0.4 c 0.1,0 0.2,-0.1 0.4,-0.1 l 0.2,-0.1 c -0.1,0.1 -0.1,0.1 0,0 m -15,-59.9 c 0.1,0 0.2,-0.1 0.2,-0.2 v -0.2 c -0.1,0 -0.1,-0.1 -0.2,-0.1 -0.3,0.2 -0.3,0.3 -0.2,0.6 l 0.2,-0.1 m -0.5,2.1 c -0.1,-0.1 -0.2,-0.3 -0.4,-0.2 -0.2,0.3 -0.1,0.3 0.2,0.6 0.1,0 0.1,-0.1 0.2,-0.1 z m 30.4,4.9 c 0.1,0 0.1,0.1 0.2,0.1 l 0.1,-0.1 c 0,0 0,-0.3 -0.1,-0.4 h -0.2 c -0.1,0 -0.2,0.1 -0.2,0.3 0.1,-0.1 0.1,0 0.2,0.1 -0.1,-0.1 0,0 0,0 m -16.6,2.1 c 0,0 0,-0.1 0,0 v -0.3 c -0.1,-0.1 -0.2,-0.1 -0.3,-0.1 -0.1,0 -0.1,0.1 -0.2,0.2 0,0.2 0,0.3 0.3,0.4 0,-0.1 0,-0.1 0.2,-0.2 -0.1,0 -0.1,0 0,0 M 161,12.6 c 0.1,0 0.1,-0.1 0.2,-0.2 0.1,-0.1 0,-0.3 -0.1,-0.3 h -0.2 c 0,0.1 -0.1,0.1 -0.1,0.2 0,0.3 0,0.3 0.2,0.3 m -3.5,7 c 0.1,-0.1 0.1,-0.2 0,-0.3 -0.1,-0.1 -0.2,-0.1 -0.3,-0.1 0,0 -0.1,0 -0.1,0.1 v 0.3 h 0.2 c 0.2,0.1 0.2,0.1 0.2,0 m 25.9,2.5 h 0.1 c 0.1,-0.1 0.1,-0.2 0.1,-0.3 -0.1,-0.1 -0.2,-0.1 -0.3,-0.1 -0.1,0.1 -0.1,0.2 -0.1,0.3 0,0 0.1,0.1 0.2,0.1 m 3.8,40.8 c 0,-0.1 -0.2,-0.2 -0.4,-0.2 -0.1,0 -0.2,0.1 -0.2,0.2 0,0.1 0,0.1 0.1,0.1 0,0.1 0.1,0.1 0.1,0.1 h 0.3 V 63 c 0.1,0 0.1,0 0.1,-0.1 M 153,30.4 c -0.1,-0.1 -0.2,-0.2 -0.3,-0.2 l -0.2,0.2 c 0,0.1 0,0.1 0.1,0.2 0.1,0.1 0.1,0.1 0.2,0.1 0.1,0 0.1,0 0.2,-0.1 v -0.2 m 20.6,-14.7 h 0.1 c 0.1,0 0.1,-0.1 0.1,-0.2 0,-0.1 -0.1,-0.1 -0.1,-0.1 l -0.1,-0.1 c -0.1,0 -0.1,0.1 -0.2,0.1 0,0.1 0,0.3 0.2,0.3 m 9,4.7 h 0.1 c 0.1,0 0.1,-0.1 0.1,-0.2 0,-0.1 0,-0.2 -0.1,-0.2 h -0.2 c -0.1,0 -0.1,0.1 -0.2,0.2 0.2,0.2 0.2,0.2 0.3,0.2 m -12.5,4.9 -0.1,-0.1 c 0,0 -0.1,0 -0.1,0.1 -0.1,0.1 -0.1,0.1 -0.1,0.2 l 0.1,0.1 h 0.2 l 0.1,-0.1 c 0,-0.1 -0.1,-0.2 -0.1,-0.2 m -35.2,10.3 c 0.1,-0.1 0.1,-0.3 0,-0.4 h -0.1 l -0.1,0.1 c -0.1,0.1 -0.1,0.1 0,0.2 0,0.1 0.1,0.2 0.2,0.1 m 46.5,30.5 c -0.1,0 -0.1,0.1 -0.2,0.1 v 0.3 c 0.1,0 0.1,0.1 0.2,0.1 0.2,-0.2 0.2,-0.4 0,-0.5 M 135.8,37.8 h -0.2 c -0.1,0 -0.2,0.1 -0.2,0.2 0.1,0.1 0.1,0.1 0.2,0.1 0.1,0 0.1,0 0.2,-0.1 0.1,-0.1 0.1,-0.2 0,-0.2 m -0.3,2 c 0.1,0 0.2,-0.1 0.2,-0.2 0,-0.1 -0.1,-0.2 -0.2,-0.2 -0.1,0 -0.2,0.1 -0.2,0.2 v 0.1 l 0.2,0.1 m 61.8,28.7 c 0.1,0 0.1,0 0.2,-0.1 0,-0.1 -0.1,-0.1 -0.1,-0.2 h -0.3 c 0,0 -0.1,0.1 -0.1,0.2 0.2,0 0.3,0.1 0.3,0.1 m -36.1,-55 c 0,-0.1 -0.1,-0.1 -0.2,0 h -0.1 c -0.1,0.1 -0.1,0.2 0,0.3 h 0.1 c 0.1,0 0.1,-0.1 0.2,-0.1 V 13.5 M 157.4,28 c 0,-0.1 -0.1,-0.1 -0.2,-0.1 -0.1,0 -0.1,0.1 -0.2,0.1 v 0.1 l 0.1,0.1 h 0.2 c 0,-0.1 0.1,-0.2 0.1,-0.2 m 29.7,47.7 H 187 c -0.1,0 -0.2,0.1 -0.2,0.2 0.1,0.1 0.2,0.1 0.2,0.1 h 0.1 v -0.3 m -52.5,-34.2 0.2,-0.2 c 0,-0.1 -0.1,-0.1 -0.1,-0.1 0,0 -0.1,0 -0.1,0.1 v 0.1 c -0.1,0 -0.1,0.1 0,0.1"
         id="path840" />
      <path
         d="m 134.4,36.1 c 0.1,0 0.1,-0.1 0,-0.2 l -0.1,-0.1 h -0.2 L 134,35.9 V 36 c 0.2,0.2 0.3,0.2 0.4,0.1 m 37.9,39 h 0.1 c 0,0 0.1,0 0.1,-0.1 0,-0.1 0,-0.2 -0.1,-0.2 h -0.1 c 0,0 -0.1,0 -0.1,0.1 V 75 l 0.1,0.1 m 2.3,-56.6 c 0.1,0 0.1,-0.1 0.1,-0.1 l -0.1,-0.1 h -0.2 c 0,0.1 0,0.1 -0.1,0.2 h 0.3 m 1.3,56.3 c -0.1,-0.1 -0.2,-0.1 -0.3,-0.1 0,0.1 0,0.1 0.1,0.2 h 0.3 c -0.1,0 -0.1,0 -0.1,-0.1 m 0.8,0 h -0.1 c 0,0 -0.1,0 -0.1,0.1 0,0.1 0,0.2 0.1,0.2 h 0.1 l 0.1,-0.1 -0.1,-0.2 M 154.6,18.5 c 0.1,-0.1 0.1,-0.2 0,-0.2 h -0.1 c 0,0 -0.1,0 -0.1,0.1 0,0 0,0.1 0.2,0.1 -0.1,0 -0.1,0 0,0 m 7.7,-6.9 c 0.1,0 0.1,0 0.2,-0.1 0,-0.1 0,-0.1 -0.1,-0.1 h -0.2 c 0,0.1 0,0.2 0.1,0.2 m 11.4,65.1 c 0,-0.1 0,-0.1 -0.1,-0.2 h -0.1 c -0.1,0 -0.1,0.1 -0.1,0.1 0,0 0,0.1 0.1,0.1 0.1,0.1 0.1,0 0.2,0 M 145.1,23.2 c 0.1,-0.1 0.1,-0.1 0,0 0.1,-0.1 0.1,-0.2 0,-0.2 H 145 c 0,0 -0.1,0 -0.1,0.1 0,-0.1 0.1,0 0.2,0.1 m -9.8,18.4 c 0.1,0 0.2,-0.1 0.2,-0.1 0,-0.1 -0.1,-0.2 -0.1,-0.1 0,0 -0.1,0 -0.1,0.1 -0.2,-0.1 -0.1,0 0,0.1 m -1.1,-4.9 c 0.1,-0.1 0.1,-0.2 0,-0.2 h -0.1 l -0.1,0.1 v 0.2 c 0.2,0 0.2,0 0.2,-0.1 m 5.7,-5.1 c 0.1,0 0.1,-0.1 0.1,-0.1 0,-0.1 -0.1,-0.1 -0.2,-0.1 -0.1,0 -0.1,0.1 -0.1,0.2 h 0.2 m 41,36.3 c 0,-0.1 0,-0.1 -0.1,-0.2 h -0.1 c -0.1,0 -0.1,0.1 -0.1,0.1 0,0 0,0.1 0.1,0.1 0.1,0.1 0.1,0 0.2,0 M 182,21.3 h 0.2 c 0,0 0.1,0 0.1,-0.1 v -0.1 c 0,-0.1 -0.1,-0.1 -0.1,-0.1 -0.1,0.1 -0.2,0.2 -0.2,0.3"
         id="path842" />
      <path
         d="M 162.7,18.1 Z"
         id="path844" />
      <path
         d="m 162.5,17.8 c -0.1,0 -0.1,0.1 -0.1,0.1 0.1,0.1 0.1,0.2 0.2,0.2 0.1,-0.1 0.1,-0.2 -0.1,-0.3 m -26.8,17.9 c 0,0 -0.1,0 0,0 h -0.1 c 0,0 0,0.1 0.1,0.1 v -0.1 m -1.4,2.3 v -0.1 c 0,0 0,-0.1 0,0 -0.1,-0.1 -0.1,0 0,0.1 -0.1,0 0,0 0,0 m 0,1.5 c 0.1,0 0.1,0 0.1,-0.1 0,-0.1 -0.1,-0.1 -0.1,-0.1 v 0.2 c 0,-0.1 0,0 0,0 m 1.2,2.9 c 0,0 -0.1,0 0,0 -0.1,0 -0.1,0 -0.1,0.1 v 0.1 h 0.1 v -0.2 c 0.1,0.1 0.1,0.1 0,0 m 43.3,32.9 c 0,-0.1 -0.1,-0.1 0,0 -0.1,-0.1 -0.1,-0.1 -0.2,0 h 0.2 c -0.1,0 -0.1,0 0,0 -0.1,0 -0.1,0 0,0 m -3.6,0.1 c 0,-0.1 -0.1,-0.1 -0.1,-0.1 v 0.2 c 0,0 0.1,0 0.1,-0.1 0,0.1 0,0.1 0,0 0,0.1 0,0 0,0 m 24.2,-1.9 c 0,0 0,-0.1 -0.1,-0.1 h -0.1 c 0.1,0.1 0.1,0.2 0.2,0.1 -0.1,0.1 -0.1,0.1 0,0 0,0.1 0,0 0,0"
         id="path846" />
      <path
         d="m 135.6,35.2 h 0.1 c 0,-0.1 0,-0.1 -0.1,0 0,-0.1 0,-0.1 0,0 0,-0.1 0,0 0,0"
         id="path848" />
      <path
         d="m 136.2,35.3 c 0.1,0 0.1,-0.1 0.1,-0.1 0,0 0,-0.1 -0.1,-0.1 h -0.1 c 0,0.1 0,0.1 0.1,0.2 -0.1,-0.1 0,0 0,0 m 45.2,-14.9 c 0,-0.1 0,-0.1 -0.1,-0.1 -0.1,0 -0.1,0 -0.1,0.1 h 0.2 c 0,0.1 0,0.1 0,0 M 154.9,20 c 0,0.1 0.1,0.2 0.1,0.3 l 0.2,0.2 h 0.5 c 0.1,-0.1 0.1,-0.3 0.1,-0.4 V 20 c 0,-0.1 -0.1,-0.2 -0.2,-0.2 h -0.2 v -0.1 h -0.1 c 0,0 0,-0.1 -0.1,-0.1 h -0.1 l -0.1,0.1 c -0.2,0.1 -0.1,0.2 -0.1,0.3 m 26.1,0.8 c 0,0 -0.1,-0.1 -0.1,-0.2 -0.1,-0.1 -0.1,-0.1 -0.2,0 l -0.1,0.1 c 0,0.1 0,0.2 0.1,0.3 0,0 0.1,0.1 0.1,0 0.1,-0.1 0.2,-0.1 0.2,-0.2 m 14.7,29.3 v -0.2 c -0.1,-0.1 -0.1,-0.1 -0.2,-0.1 -0.1,0 -0.1,0 -0.1,0.1 -0.1,0.1 -0.1,0.1 0,0.2 l 0.1,0.1 h 0.1 c 0,0.1 0.1,-0.1 0.1,-0.1 m 4.4,17.3 c 0,-0.1 -0.1,-0.2 -0.1,-0.1 -0.1,0 -0.1,0.1 -0.2,0.1 -0.1,0 -0.1,0.1 -0.1,0.2 l 0.1,0.1 0.3,-0.3 M 152,20.8 c 0,-0.1 0,-0.1 0,0 0.1,-0.1 0.1,-0.2 0,-0.3 h -0.1 c 0,0 -0.1,0 -0.1,0.1 0,0.1 0.1,0.1 0.1,0.2 h 0.1 m 2.4,0.1 h 0.3 v -0.2 l -0.1,-0.1 c 0,0 -0.1,0 -0.1,0.1 -0.1,0.1 -0.1,0.1 -0.1,0.2 m 41,51.6 0.1,-0.1 -0.1,-0.1 c 0,0 -0.1,0 -0.1,0.1 v 0.2 c -0.1,0 0,0 0.1,-0.1 M 148.2,35.8 c 0,-0.1 0,-0.1 -0.1,-0.2 L 148,35.5 h -0.1 c -0.1,0.1 -0.1,0.1 0,0.2 v 0.1 l 0.1,0.1 c 0.2,0 0.2,-0.1 0.2,-0.1 m 42.1,23.1 c 0,-0.1 0,-0.2 -0.1,-0.2 0,0 -0.1,0 -0.1,0.1 0,0.1 0,0.2 0.1,0.2 l 0.1,-0.1 m 8.4,14.2 c -0.1,0 -0.1,0.1 0,0 -0.1,0.1 0,0.1 0,0.1 h 0.2 c 0,0 0.1,0 0.1,-0.1 h -0.3 m -0.1,-4.6 c 0,0 -0.1,0 0,0 h -0.1 c -0.1,0.1 0,0.1 0.1,0 0.1,0.2 0,0 0,0 M 136.2,41.3 c 0,0.1 0,0.1 0.1,0.1 0,0 0,-0.1 -0.1,-0.1 m 45.2,24.3 c 0,0.1 0,0.1 0,0 0.1,0.1 0.1,0.1 0,0 M 148.2,62 c 0,0 -0.1,0 0,0 -0.1,0.1 0,0 0,0 m 5.7,-41.2 c 0,0.1 0,0.1 0,0 0,0.1 0,0.1 0,0 0.1,0.1 0.1,0.1 0,0 0.1,0.1 0.1,0 0,0 M 170,17.6 c 0,0.1 -0.1,0.2 -0.1,0.3 V 18 c -0.1,0.1 -0.1,0.3 -0.2,0.4 v 0.5 c 0,0.3 0,0.6 -0.1,0.9 0,0.1 -0.1,0.1 -0.2,0.2 v 2 l 0.1,2.2 V 25 c 0,0 0,0.1 0.1,0.1 v 0.2 c 0.2,-0.3 0.3,-0.4 0.5,-0.6 0.1,-0.1 0.2,-0.1 0.3,-0.1 h 0.1 c 0.5,0.2 1.2,0.1 1.6,0.5 0,0.1 0.1,0.2 0.1,0.3 0.1,0.1 0.2,0.1 0.3,0.1 h 0.2 c 0.1,0 0.1,-0.1 0.1,-0.2 0.1,-0.2 0.2,-0.2 0.3,-0.2 h 0.1 a 0.78,0.78 0 0 0 0.4,0.4 c 0.1,0 0.1,0 0.1,0.1 0.1,0.1 0.3,0.2 0.4,0.3 l 0.2,0.2 c 0.1,0.1 0.3,0.1 0.4,0.1 h 0.1 c 0.1,0 0.2,0.1 0.2,0.1 0.1,0.1 0.1,0.2 0.2,0.3 0.1,0.1 0.2,0.1 0.4,0.2 0.1,0 0.1,0.1 0.2,0.1 0.1,0.1 0.2,0.2 0.3,0.2 h 0.3 c 0.3,0.1 0.6,0.2 0.9,0.4 0.1,0 0.1,0.1 0.2,0.1 0.2,0.1 0.3,0.2 0.5,0.3 l 0.2,0.2 c 0,0 0.1,0 0.1,0.1 l 0.1,0.1 c 0.1,0 0.1,0 0.1,0.1 l 0.8,0.8 c 0,0 0.1,0 0.1,0.1 0.1,0 0.1,0.1 0.2,0.1 l 0.4,0.4 c 0,0.1 0.1,0.1 0.1,0.2 0,0 0.1,0 0.1,0.1 h 0.4 v 0.1 c 0,0.1 -0.1,0.2 0,0.3 l 0.4,0.4 c 0,0.1 0,0.2 0.2,0.2 0.1,0.1 0.1,0.2 0.2,0.3 v -1.8 c 0,-0.3 -0.1,-0.6 0.1,-0.9 0.2,0 0.5,-0.1 0.7,-0.1 h 0.7 c 0.3,0 0.6,0 0.9,0.1 0.6,0.1 0.8,-0.1 0.8,-0.7 0,-0.4 0,-0.8 0.2,-1.1 0.2,-0.3 0.1,-0.7 -0.1,-1 0.2,-0.1 0.3,-0.2 0.5,-0.3 h 0.9 c 0,-0.1 0.1,-0.2 0,-0.3 -0.2,-0.3 -0.4,-0.5 -0.6,-0.8 0,0.1 -0.1,0.1 -0.1,0.2 0,0.1 -0.1,0.1 -0.1,0.2 h -0.1 c -0.1,0 -0.1,0 -0.2,-0.1 -0.1,0 -0.1,-0.1 -0.2,-0.1 -0.1,-0.1 -0.1,-0.2 0,-0.3 0,-0.1 0.1,-0.1 0.1,-0.2 v -0.8 h -0.1 c -0.1,0 -0.1,0 -0.2,-0.1 v -0.4 c 0.1,-0.2 0.2,-0.3 0.2,-0.5 -0.1,-0.1 -0.1,-0.1 -0.2,-0.1 -0.1,0.1 -0.1,0.2 -0.2,0.2 h -0.1 c 0,0 0,-0.1 -0.1,-0.1 l -0.1,-0.1 c -0.2,0.1 -0.3,0.3 -0.4,0.5 0,0.1 -0.1,0.2 -0.2,0.3 0,0.1 -0.1,0.1 -0.2,0.1 h -0.2 c 0,-0.1 -0.1,-0.2 -0.1,-0.3 -0.1,-0.2 -0.2,-0.3 -0.5,-0.4 h -0.3 c -0.1,0 -0.2,-0.1 -0.3,-0.1 h -0.2 c -0.1,0 -0.1,0 -0.2,0.1 h -0.1 c 0,-0.1 0,-0.2 0.1,-0.2 l 0.1,-0.1 c 0,-0.1 0,-0.3 -0.1,-0.4 h -0.6 c -0.2,0 -0.2,-0.2 -0.3,-0.3 h -0.4 c -0.1,0 -0.3,0 -0.4,-0.1 l -0.2,-0.2 c -0.1,-0.1 -0.3,-0.1 -0.4,-0.2 l 0.1,-0.1 v -0.2 c 0,0 0,-0.1 0.1,-0.1 v -0.1 c -0.1,-0.1 -0.2,-0.2 -0.3,-0.2 -0.2,0.1 -0.5,0.2 -0.7,0.3 -0.2,0 -0.3,0 -0.5,-0.1 -0.1,0 -0.1,-0.1 -0.1,-0.2 0,-0.1 0.1,-0.1 0.1,-0.2 0.1,-0.1 0.3,-0.1 0.4,-0.2 v -0.1 l -0.1,-0.1 v -0.2 l 0.3,-0.3 c -0.1,-0.1 -0.2,-0.1 -0.3,0 -0.1,0.1 -0.2,0.2 -0.3,0.2 -0.1,0 -0.3,0.1 -0.4,0.1 -0.1,0.1 -0.2,0.2 -0.3,0.4 0,0 -0.1,0 -0.1,-0.1 V 19.7 H 177 c -0.1,-0.1 -0.1,-0.2 -0.2,-0.2 h -0.3 l -0.1,-0.1 c 0,-0.1 -0.1,-0.2 -0.1,-0.2 -0.1,-0.1 -0.1,-0.2 -0.3,-0.1 -0.1,0.1 -0.2,0.2 -0.4,0.3 -0.1,0 -0.1,-0.1 -0.2,-0.1 0,-0.1 -0.1,-0.1 -0.1,-0.2 V 19 l -0.1,-0.1 h -0.1 L 175,19 v 0.4 c -0.2,0 -0.4,0.1 -0.5,0.1 0,0 -0.1,0 -0.1,-0.1 0,-0.1 -0.1,-0.1 -0.1,-0.2 -0.1,-0.2 -0.1,-0.3 -0.2,-0.5 H 174 c 0,-0.1 -0.2,-0.2 -0.3,-0.1 -0.1,0 -0.1,0 -0.1,0.1 -0.1,0 -0.1,0.1 -0.2,0.1 H 173 c -0.1,0 -0.1,0 -0.2,0.1 l -0.1,-0.1 c 0,-0.1 -0.1,-0.3 -0.2,-0.3 -0.1,-0.1 -0.2,-0.1 -0.3,-0.1 H 172 c -0.3,0 -0.5,-0.1 -0.6,-0.4 -0.1,-0.1 -0.2,-0.2 -0.3,-0.2 -0.1,-0.1 -0.2,-0.1 -0.4,-0.1 -0.1,0 -0.2,-0.1 -0.3,-0.1 0,0 -0.1,0 -0.1,0.1 H 170 c 0,-0.2 0.1,-0.3 0,-0.5 -0.1,-0.1 0,-0.2 0,-0.3 -0.1,-0.1 -0.2,-0.3 -0.2,-0.3 -0.1,-0.1 -0.1,-0.3 -0.1,-0.5 -0.2,-0.1 -0.3,0 -0.3,0.1 v 0.2 c -0.1,0.3 -0.1,0.6 -0.1,1 v 0.7 c 0.5,-0.6 0.6,-0.5 0.7,-0.5 m 14,5.9 c 0,-0.1 0,-0.1 0,0 0,-0.1 0,-0.1 0,0 0,-0.1 0,0 0,0 M 177.1,20 c 0.1,-0.1 0.1,-0.1 0.2,-0.1 0.1,0 0.1,0 0.2,0.1 v 0.1 c -0.1,0.1 -0.3,0.2 -0.5,0.3 h -0.2 l -0.1,-0.1 c 0.2,-0.1 0.3,-0.2 0.4,-0.3 m -12.9,-1.5 c 0,0.3 0.1,0.6 0.1,0.9 l 0.1,2.1 c 0,0.5 0.1,0.7 0.3,1.3 v 0.1 c 0.4,-0.4 0.8,-0.7 1.2,-1 l 1.1,-1.2 c 0.5,-0.6 1.1,-1.1 1.6,-1.6 0,0 0,-0.1 0.1,-0.1 0,-0.2 0.1,-0.3 0.1,-0.5 v -1 c 0,-0.3 -0.1,-0.5 -0.1,-0.8 0,-0.2 -0.1,-0.4 -0.1,-0.6 -0.2,0.2 -0.4,0.4 -0.7,0.2 -0.1,0.1 -0.3,0.1 -0.4,0 -0.1,0 -0.1,0.1 -0.2,0.1 l -0.1,0.1 v 0.1 c -0.1,0.1 -0.3,0.1 -0.4,0.1 0,0.1 -0.1,0.1 -0.1,0.2 l -0.1,0.1 v 0.1 c 0,0.1 -0.1,0.2 -0.1,0.3 V 18 c 0,0.2 0,0.5 -0.1,0.7 -0.2,0 -0.2,-0.1 -0.2,-0.2 0,-0.3 0,-0.6 0.1,-0.9 0,-0.1 -0.1,-0.2 -0.1,-0.3 -0.1,-0.1 -0.2,-0.2 -0.3,-0.2 h -0.3 l -0.3,0.3 c -0.2,-0.1 -0.4,-0.1 -0.6,-0.2 -0.1,0.1 -0.2,0.1 -0.3,0.2 V 18 c -0.3,0.2 -0.2,0.4 -0.2,0.5 m -25.1,27 c 0.3,-0.2 0.5,-0.4 0.8,-0.6 0.3,-0.2 0.6,-0.4 0.7,-0.8 l -1.4,-0.9 c -0.4,-0.2 -0.7,-0.5 -1.1,-0.7 a 2.73,2.73 0 0 1 -1.2,-0.9 c -0.1,-0.1 -0.3,-0.1 -0.4,-0.2 l -0.1,0.1 c 0,0.1 0.1,0.1 0.1,0.2 v 0.6 c 0,0.1 0,0.2 0.1,0.3 0,0.1 0,0.1 -0.1,0.1 h -0.3 v 0.1 c -0.1,0.1 -0.1,0.2 -0.1,0.3 0,0.1 0.1,0.1 0.1,0.2 0,0.1 0.1,0.2 0.1,0.3 0,0.1 0.1,0.2 0.1,0.3 -0.1,0.2 -0.1,0.5 0,0.7 v 0.1 c 0.1,0.1 0.1,0.2 0.1,0.4 v 0.8 c -0.1,0.1 -0.1,0.3 -0.2,0.4 v 0.1 c 0,0.1 0.1,0.2 0.1,0.4 0,0.1 0,0.2 -0.1,0.2 0,0.1 -0.1,0.2 0,0.3 h 0.1 c 0,0 0,0.1 0.1,0.1 0.2,-0.1 0.3,-0.2 0.5,-0.4 0.7,-0.4 1.4,-0.9 2.1,-1.5 m 29.3,21.4 c 0,-0.1 0,-0.3 -0.1,-0.4 0,-0.1 -0.2,-0.1 -0.3,-0.1 -0.2,0.2 -0.3,0.3 -0.5,0.3 -0.1,0 -0.2,0.1 -0.2,0.2 -0.2,0.2 -0.3,0.4 -0.5,0.7 0.2,0.3 0.4,0.5 0.6,0.7 0.1,0.2 0.3,0.3 0.5,0.4 l 0.1,0.1 c 0.1,0.2 0.1,0.3 0.2,0.4 0.1,0 0.2,0 0.2,-0.1 v -0.6 c 0.1,-0.5 0.1,-1 0,-1.4 v -0.2 m -4.5,1.9 c 0.1,-0.6 0.1,-0.6 -0.1,-0.8 0.1,0.3 0,0.5 0.1,0.8"
         id="path850" />
      <path
         d="M 182.4,65.4 Z"
         id="path852" />
      <path
         d="M 147.4,66.2 Z"
         id="path854" />
      <path
         d="m 163.6,70.4 v -4.9 c 0,-0.1 -0.1,-0.1 -0.2,-0.1 -0.1,0 -0.1,-0.1 -0.2,-0.1 h -0.5 c -0.2,0 -0.3,0 -0.4,-0.2 0,-0.2 0,-0.2 -0.1,-0.3 h -0.5 l -0.2,0.2 h -0.1 c -0.2,-0.1 -0.3,-0.1 -0.5,-0.2 v -0.1 c 0,-0.1 -0.1,-0.1 -0.1,-0.2 0,-0.1 0,-0.2 -0.1,-0.2 -0.3,-0.2 -0.7,-0.4 -1.1,-0.6 -0.2,-0.1 -0.4,-0.1 -0.7,-0.2 0,0 -0.1,-0.2 -0.2,-0.2 -0.3,-0.2 -0.6,-0.4 -1,-0.4 -0.2,0 -0.4,-0.1 -0.6,-0.3 -0.1,-0.1 -0.1,-0.1 -0.2,-0.1 0,0.1 -0.1,0.2 -0.1,0.3 v -0.3 c 0,-0.1 0,-0.2 -0.1,-0.3 -0.2,0 -0.3,0.1 -0.5,0.1 0,-0.1 0,-0.1 -0.1,-0.2 -0.2,-0.1 -0.3,-0.3 -0.4,-0.4 h -0.4 c -0.1,-0.1 -0.2,-0.3 -0.3,-0.4 -0.3,-0.2 -0.6,-0.3 -0.8,-0.5 -0.1,0 -0.1,-0.1 -0.1,-0.2 -0.2,-0.1 -0.3,0 -0.5,-0.1 -0.1,-0.2 -0.3,-0.3 -0.4,-0.5 -0.3,0 -0.3,-0.3 -0.6,-0.3 0,0 0,0.1 -0.1,0.1 -0.1,0 -0.3,-0.1 -0.4,0 H 152 c -0.2,0.1 -0.3,0.2 -0.4,0.2 -0.4,0.3 -0.8,0.5 -1.2,0.8 -0.1,0.1 -0.2,0.1 -0.3,0.2 -0.4,0.3 -0.7,0.6 -1.1,1 -0.1,0.1 -0.1,0.2 0,0.3 0.2,0.1 0.4,0.2 0.6,0.2 0.1,0 0.2,0 0.3,0.1 0.1,0 0.1,0.1 0.2,0.1 -0.4,0.2 -0.6,0.2 -1.9,0.1 -0.1,0 -0.3,-0.1 -0.5,-0.2 h -0.1 l -1.2,1.2 c -0.1,0.1 -0.2,0.2 -0.3,0.2 l -0.2,0.2 v 0.1 c 0,0.1 -0.1,0.1 -0.1,0.2 l -0.3,0.3 h 0.3 c 0.1,0 0.1,0 0.2,0.1 0.2,0.1 0.3,0.1 0.5,0.2 0.1,0 0.2,0.1 0.3,0.1 0.1,0.1 0.2,0.1 0.3,0.2 0,0.1 0.1,0.1 0.1,0.2 0,0.1 0.1,0.2 0.2,0.3 0,0 0,0.1 0.1,0.1 0.1,0 0.2,0.1 0.4,0.1 0.1,0 0.1,-0.1 0.2,-0.1 0.2,-0.1 0.3,0 0.5,0.1 0.2,0.1 0.4,0.3 0.6,0.4 0.1,0 0.2,0.1 0.3,0.1 0.2,0.1 0.4,0.3 0.6,0.4 0.1,0 0.1,0.1 0.2,0.1 0.2,0.2 0.3,0.3 0.4,0.3 a 1.44,1.44 0 0 0 0.2,0.3 h 0.5 l 0.2,0.2 c 0.1,0.1 0.2,0.1 0.1,0.2 -0.1,0.1 -0.1,0.2 -0.3,0.2 -0.1,-0.1 -0.2,-0.2 -0.3,-0.2 -0.1,0 -0.2,0.1 -0.2,0.1 0,0.1 0,0.1 0.1,0.2 -0.1,0.1 -0.1,0.1 -0.5,-0.2 -0.1,0 -0.1,0.1 -0.2,0.1 -0.1,0.1 -0.1,0.2 0,0.3 0.1,0.1 0.2,0.1 0.3,0.2 v 0.1 c 0,0.1 -0.1,0.1 -0.1,0.1 -0.2,-0.1 -0.4,-0.1 -0.6,-0.2 h -0.1 c -0.1,0 -0.1,0 -0.2,0.1 -0.1,0 -0.3,-0.1 -0.4,-0.1 h -0.1 c -0.3,0.2 -0.6,0.2 -0.9,0 -0.3,0 -0.4,-0.2 -0.7,-0.3 -0.6,0 0.3,0.1 -0.4,0.2 l -0.1,0.1 v 0.4 c 0,0.1 -0.1,0.2 -0.1,0.2 l -0.1,-0.1 c 0,-0.1 0.1,-0.2 0.1,-0.4 v -0.2 c -0.1,-0.1 -0.1,-0.1 -0.2,0 l -0.1,-0.3 c -0.1,0 -0.2,0 -0.2,-0.1 a 0.76,0.76 0 0 1 -0.4,0.2 c -0.2,-0.1 -0.5,-0.1 -0.7,-0.1 -0.1,0 -0.1,0.1 -0.2,0.2 v 0.2 H 145 a 0.76,0.76 0 0 0 -0.4,0.2 h -0.5 l -0.2,0.2 V 69 c 0,0 0,0.1 -0.1,0.2 -0.2,-0.1 -0.5,0.1 -0.8,0.1 0,0 0,-0.1 0.1,-0.1 a 0.55,0.55 0 0 1 -0.5,-0.3 c -0.1,0.1 -0.3,0.2 -0.4,0.3 -0.1,0 -0.2,-0.1 -0.2,-0.3 h -0.5 c -0.2,0.1 -0.4,0.2 -0.6,0 -0.1,0 -0.2,-0.2 -0.2,-0.2 h -0.4 c -0.1,0.2 -0.3,0.5 -0.4,0.7 0,0.1 -0.1,0.1 -0.1,0 -0.1,-0.1 -0.4,-0.2 -0.4,-0.3 0,-0.1 0.4,-0.2 0.4,-0.4 0,0 -0.4,-0.1 -0.4,-0.2 -0.1,-0.1 -0.2,-0.1 -0.2,0 l -0.1,0.1 V 69 c 0,0.1 0,0.2 -0.1,0.3 0,0 -0.1,0 -0.1,-0.1 0,-0.2 -0.3,-0.4 -0.5,-0.5 -0.1,0 -0.2,-0.3 -0.3,-0.4 0,0 0,-0.1 -0.2,0 -0.2,0 -0.2,0.1 -0.2,0.1 -0.1,0.2 0,0.3 0.1,0.4 -0.3,0.2 0,0.5 -0.7,0.6 v -0.3 c 0,0 -0.1,-0.1 -0.1,-0.2 0.1,-0.4 -0.2,-0.3 -0.3,-0.1 -0.1,0.1 -0.3,-0.1 -0.4,0 v -0.1 l -0.1,-0.1 c 0,-0.1 -0.1,-0.3 -0.3,-0.4 h -0.5 c -0.2,0.1 0.3,0.5 0.3,0.7 h -0.1 c -0.1,-0.1 -0.3,-0.2 -0.4,-0.3 H 135 c 0,-0.1 0,-0.3 -0.1,-0.3 -0.1,-0.1 -0.3,0.2 -0.2,0.2 -0.3,-0.1 -0.2,-0.3 -0.4,-0.5 h -0.6 c -0.2,0.1 -0.5,0.5 -0.6,0.7 h -0.2 c 0,0 -0.1,-0.2 0,-0.2 h -0.1 c 0.2,-0.2 0.1,-0.4 -0.2,-0.3 -0.1,0.1 0,-0.3 -0.4,-0.5 0,0 -0.2,0.3 -0.2,0.4 0,0.1 0.2,0.2 0.3,0.3 0,0.1 -0.1,0.5 -0.2,0.5 -0.1,0.1 -0.4,0.2 -0.5,0.1 -0.1,-0.1 0.2,-0.3 0.2,-0.5 0,-0.2 -0.2,-0.4 -0.2,-0.3 l 0.1,-0.5 c -0.2,0 -0.3,0 -0.4,-0.2 -0.2,0 -0.8,0 -1,-0.1 -0.2,-0.1 -0.6,-0.2 -0.9,-0.1 0,0 -0.1,0.1 -0.1,0.2 h 0.2 c 0.1,0 0.1,0.2 0.1,0.2 v -0.1 h 0.1 l -0.1,0.1 c 0.2,0.1 0.5,0.5 0.7,0.8 0.1,0 0.2,-0.1 0.3,-0.2 v 0.1 c 0,0.1 0,0.1 -0.1,0.2 0.1,0.1 0.3,0.1 0.4,0.2 0,0 0,0.1 0.1,0.1 -0.1,0.1 -0.1,0.2 -0.2,0.2 l -0.2,-0.2 c -0.1,0 -0.1,-0.1 -0.2,-0.1 0,-0.1 0.1,-0.2 0.1,-0.3 h -0.4 v 0.1 c -0.1,-0.1 -0.2,-0.1 -0.4,-0.2 h -0.2 c -0.1,0 -0.1,0.1 -0.1,0.1 0,0 0,0.1 0.1,0.1 0.2,0.1 0.3,0.2 0.5,0.2 0.1,0.1 0.3,0.2 0.3,0.3 h 0.1 c 0.2,0 0.3,0.1 0.4,0.1 0,0 0.1,0 0.1,-0.1 h 0.1 l 0.1,-0.1 c 0,0 0.2,0 0.3,0.1 v -0.2 h 0.1 c 0.1,0.1 0.1,0.2 0.2,0.1 l 0.1,-0.1 h 0.1 c 0.1,0 0.3,0.5 0.4,0.6 h 0.1 l 0.5,0.6 0.3,0.1 0.1,-0.3 c -0.2,-0.2 -0.2,-0.5 -0.2,-0.7 -0.3,-0.2 -0.3,-0.1 -0.4,-0.5 0,0 0.1,0.1 0.3,0.1 0.3,-0.1 1.1,-0.3 1.1,-0.3 0.2,0.3 0.1,0.5 0.3,0.8 0.2,0.1 0.2,-0.1 0.4,0 h 0.2 c 0.2,0.1 0.5,0.1 0.7,0 -0.2,0.1 -0.2,0.2 -0.3,0.5 0,0.1 0,0.1 0.1,0.2 0.3,0.1 0.2,0.1 0.5,0.1 0.1,0.2 0.1,0.2 0.2,0.3 -0.2,0 -0.4,0.1 -0.5,0.1 -0.2,-0.2 -0.3,-0.2 -0.5,-0.4 -0.2,0.1 -0.3,-0.2 -0.5,-0.1 -0.3,0.1 -0.5,0 -0.8,0 0,0 -0.1,0.1 -0.2,0.1 0.1,0 0.1,0 0.2,0.1 h 0.1 c 0.1,0.1 0.2,0.1 0.4,0.2 0.1,0 0.2,0.1 0.3,0 0.1,0.2 0.3,0.2 0.4,0.3 0.1,0 0.1,0.1 0.1,0.2 -0.2,0 -0.6,-0.3 -0.7,-0.2 -0.2,0.5 0.6,0.5 0.7,0.2 0.1,0.1 0.3,0.1 0.4,0.1 0,-0.1 0.2,0.1 0.2,0.1 0.1,0 0.2,-0.1 0.3,-0.1 0.1,0.1 0.3,0.1 0.4,0.1 0.1,0 0.1,0.1 0.1,0.1 h -0.5 c -0.1,0 -0.1,0.1 -0.1,0.1 v 0.1 c 0.1,0.1 0.2,0.2 0.3,0.1 0.1,-0.1 0.2,-0.2 0.2,-0.3 0.1,0 0.3,0.5 0.4,0.5 v -0.2 l 0.1,-0.1 c 0,0 -0.1,-0.5 -0.2,-0.6 v -0.2 c 0,-0.1 0.1,-0.1 0.2,-0.1 h 0.1 c 0.2,0 0.7,0.1 0.9,0.2 0,0 0.1,0 0.1,-0.1 0.1,-0.1 0.2,0.1 0.3,-0.3 0.1,0.5 0,0.5 -0.2,0.8 h -0.8 c 0,0.1 -0.1,0.2 -0.1,0.2 v 0.8 c 0.1,0 0.3,0.2 0.3,0.2 h 0.1 v 0.1 l 0.1,0.2 c 0.1,-0.1 0.1,-0.4 0.2,-0.4 0.1,-0.1 0.2,-0.3 0.3,-0.3 0.1,0.2 0.1,0.4 0.2,0.5 0,0.1 0.1,0.1 0.1,0.2 0.1,0 0.2,0 0.2,0.1 0,-0.1 0.1,-0.1 0.1,-0.1 v -0.5 l 0.6,0.3 V 73 h -0.4 l -0.1,0.2 h 0.3 V 73 c 0.2,0.2 0.2,0.1 0.5,0.2 0.3,-0.1 0.3,-0.1 0.5,-0.1 h 0.1 c 0.1,-0.2 0.2,-0.4 0.2,-0.5 a 0.76,0.76 0 0 0 0.2,-0.4 v -0.4 c 0.1,-0.2 0.1,-0.3 0.1,-0.5 0,0 0.1,-0.1 0,-0.1 -0.1,-0.1 0.1,-0.6 0.4,-0.7 0.1,0 0.5,0 0.7,-0.1 h 0.1 c 0,0 0,0.1 0.1,0.1 0,0.1 -0.3,0.6 -0.3,0.8 -0.2,0.1 -0.4,0 -0.5,0.1 -0.2,0.3 -0.2,0.9 -0.2,1.1 -0.1,0 -0.1,0.1 -0.2,0.1 -0.1,0 -0.1,0.1 -0.1,0.2 h 0.7 c 0.1,0.2 0.2,0.4 0.2,0.6 0,0.1 -0.1,0.1 -0.1,0.2 0,0 0.1,0 0.1,0.1 0.2,0.2 0.3,0.2 0.5,0.1 v -0.1 c 0,0 0,-0.1 -0.1,-0.1 -0.1,0 -0.3,-0.1 -0.5,-0.1 v -0.1 l 0.2,-0.2 c 0.1,0 0.1,0 0.3,0.1 h 0.2 c 0,-0.1 0,-0.2 0.1,-0.3 0,0 0,-0.1 0.1,-0.1 h 0.2 c 0,-0.2 -0.1,-0.3 -0.1,-0.5 h 0.2 c 0.2,0 0.7,-0.2 0.9,-0.1 0,0.1 -0.1,0.2 -0.1,0.2 0,0.2 -0.1,0.4 -0.2,0.5 h 0.1 v 0.3 l 0.1,0.1 c 0.1,0 0.1,0 0.1,-0.1 0,-0.2 0.1,-0.3 0.1,-0.5 0.2,0.1 0.4,0 0.6,0 0.1,0 0.1,0.1 0.2,0.1 h -0.1 v 0.2 l 0.1,0.1 c 0,0.1 0,0.2 0.1,0.2 h 0.5 v 0.4 l 0.1,0.1 c 0,0 0.1,0 0.1,-0.1 0.1,-0.1 0,-0.2 -0.1,-0.3 h -0.2 v -0.1 l 0.1,-0.1 c 0.1,0 0.1,0.1 0.2,0.2 l 0.1,-0.1 h 0.3 v -0.2 c 0,0 -0.1,0 -0.1,-0.1 l 0.1,-0.1 v -0.2 c 0,0 0.1,0 0.1,0.1 0.1,0.1 0.1,0.2 0.2,0.3 l -0.1,0.3 c 0,0.1 0.1,0.3 0.1,0.3 0.1,0 0.3,0 0.4,0.1 h 0.2 c 0,0.1 -0.1,0.2 0,0.2 0.1,0 0.2,0.1 0.3,0.1 v -0.1 c 0.1,0 0.1,-0.1 0.2,-0.1 0,0 0,-0.1 0.1,-0.1 0.1,0 0.1,0.1 0.2,0.1 l 0.1,-0.1 c 0.1,0 0.2,0 0.3,-0.1 0.3,0.2 0.7,0.1 1,0.3 0.1,-0.1 0.3,-0.1 0.4,-0.1 v 0.1 c 0.3,0 0.4,0.4 0.7,0.4 0.1,0 0.1,-0.1 0.2,-0.1 h 0.3 v 0.2 c 0,0.1 0.1,0.2 0.2,0.2 0.1,-0.1 0.1,-0.2 0.2,-0.3 v -0.1 c 0,-0.1 0.1,-0.1 0.1,0 l 0.2,0.2 0.1,-0.1 h 0.1 c 0.2,0 0.3,0.1 0.5,0.1 0.3,-0.1 0.5,-0.2 0.7,-0.4 0.1,0 0.2,0.1 0.3,0.1 0.1,-0.2 0.4,-0.3 0.5,-0.4 V 74 h 0.1 c 0,-0.1 0.1,-0.2 0.1,-0.2 v 0.1 c 0,0.1 0,0.2 -0.1,0.2 0.1,0.1 0.3,0.2 0.4,0.3 0.1,0 0.1,0 0.2,-0.1 V 74 c 0.1,-0.1 0.1,-0.1 0.2,-0.1 0.1,0 0.2,0.5 0.3,0.5 l 0.1,-0.1 c 0.1,0 0.1,-0.2 0.3,-0.2 0.1,0.1 0,0.3 0.2,0.4 0.1,0 0.2,0.1 0.3,0.1 -0.2,0.1 -0.4,0 -0.6,0.1 l -0.1,0.1 c 0,0.1 0,0.1 0.1,0.1 h 0.1 c 0,0.1 0.1,0.1 0.2,0.1 h 0.1 c 0.2,-0.1 0.4,-0.1 0.5,-0.1 0.1,-0.1 0.2,-0.2 0.3,-0.2 h 0.2 v 0.2 c 0.1,0.1 0.2,0.1 0.3,0.1 0.1,0 0.2,-0.1 0.4,-0.2 l 0.1,-0.1 v -0.1 h 0.1 c 0.1,0 0.1,0.1 0.2,0.1 0.1,-0.1 0.1,-0.2 0.1,-0.3 -0.1,-0.1 -0.1,-0.3 -0.2,-0.4 -0.1,0.1 -0.1,0.2 -0.2,0.3 v 0.2 c -0.2,0 -0.4,0.2 -0.7,0.1 v -0.4 c 0.1,-0.1 0.1,-0.2 0.2,-0.3 0,0.1 0.1,0.1 0.1,0.1 0.1,0 0.1,0.1 0.2,0.1 h 0.1 c 0.1,0 0.1,-0.1 0.2,-0.1 l 0.1,-0.1 h 0.1 c 0.1,0 0.1,0.1 0.2,0.1 h 1 c 0.1,-0.1 0.3,-0.1 0.4,-0.2 0,0 0,-0.1 0.1,-0.2 0,0 0,-0.1 0.1,-0.2 0.1,0 0.1,0.1 0.2,0.1 v -0.1 c 0.1,0 0.1,0.1 0.2,0.1 h 0.5 c 0.1,0 0.2,0.1 0.3,0.1 v -0.2 c 0.1,0 0.1,0 0.2,-0.1 0.2,-0.1 0.4,-0.2 0.6,-0.1 h 0.1 c 0.1,0 0.2,0.1 0.3,0.1 0,0 0,0.1 0.1,0.1 0,0.1 0.1,0.1 0.1,0.2 0,0 0,0.1 0.1,0.2 0.1,0 0.3,-0.5 0.4,-0.5 0.1,0 0.2,0.1 0.3,0.1 0.2,0.2 0.5,-0.1 0.7,-0.2 v -0.1 c 0,-0.6 0.1,-1.3 0.1,-1.9 0.1,0 0.1,-0.4 0.1,-0.8 m -33.8,-1.8 c -0.1,0 -0.1,-0.2 -0.1,-0.3 l 0.1,-0.1 h 0.2 c 0,0.1 -0.1,0.4 -0.2,0.4 m 7.3,2.4 -0.1,0.1 -0.6,-0.2 v -0.3 c 0,0 0.4,0 0.4,-0.1 0,0.1 0.1,0.3 0.2,0.3 0,0.1 0.1,0.1 0.1,0.2 m 1.5,1.3 c 0,0.1 -0.1,0.1 -0.2,0.2 0,0 -0.1,0.2 -0.2,0.2 -0.1,-0.2 -0.3,-0.4 -0.4,-0.5 l 0.3,-0.1 c 0.1,-0.1 0.1,-0.2 0.2,-0.2 0.1,0 0.1,0.1 0.2,0.1 0.2,0 0.2,0.2 0.1,0.3 m 1,-1.4 c 0,0 -0.1,0 -0.1,-0.1 0,0 -0.1,-0.1 0,-0.1 l 0.1,-0.1 c 0.1,0 0.2,0.1 0.2,0.2 -0.1,0.1 -0.2,0.2 -0.2,0.1 m 0.2,1.6 c 0,0 -0.1,0 0,0 -0.1,0 -0.1,-0.1 0,0 v -0.2 0.2 m 0.8,-2 c 0,0.1 -0.1,0.1 -0.2,0.2 h -0.1 c -0.1,-0.2 -0.2,-0.3 -0.3,-0.5 0.1,-0.1 0.2,-0.2 0.3,-0.2 0.1,0 0.1,0.1 0.2,0.1 0.2,0.1 0.2,0.3 0.1,0.4 m 0.7,0 v -0.1 h 0.1 c 0.1,0 0.2,0.1 0.2,0.2 -0.1,0 -0.2,0 -0.3,-0.1 m 2.9,-0.2 c -0.2,0.1 -0.3,0.1 -0.5,0.2 -0.3,0.3 -0.1,0.5 0,0.8 -0.1,0.1 -0.1,0.3 -0.4,0.2 -0.2,-0.3 0,-0.6 -0.3,-0.9 -0.2,-0.2 -0.2,-0.5 -0.2,-0.8 l 0.1,-0.1 c 0.4,0.1 0.4,0.1 0.9,0 0,0 0.1,0 0.1,0.1 0.1,0.1 0.2,0.3 0.3,0.4 0,0 0.1,0.1 0,0.1 m 0.9,-1.4 H 145 v -0.1 l 0.1,-0.1 c 0.1,0 0.1,0.1 0,0.2 0.1,-0.1 0.1,0 0,0 m 1.5,5.6 c 0,-0.1 -0.1,-0.2 -0.1,-0.2 0.1,0 0.2,-0.1 0.2,-0.1 0.1,0 0,0.1 -0.1,0.3 m 0.8,-5.1 -0.2,-0.2 c 0,0 0,-0.1 0.1,-0.1 l 0.1,0.1 c 0.1,0.1 0.1,0.2 0,0.2 m 8.8,-6.6 0.1,0.1 c 0,0.1 0,0.1 -0.1,0.1 v -0.1 c -0.1,0 -0.1,-0.1 0,-0.1 m -0.3,-0.4 h 0.2 a 0.76,0.76 0 0 0 -0.2,0.4 h -0.1 c 0,-0.1 0,-0.3 0.1,-0.4 m -2.3,11.7 -0.1,0.1 c 0,0 -0.1,0.1 -0.1,0 v -0.1 c 0.1,0 0.1,-0.1 0.2,-0.1 v 0.1 m -7.3,-10.6 1.1,-1.1 c 0.1,-0.1 0.2,-0.3 0.3,-0.5 -0.2,-0.1 -0.3,-0.2 -0.4,-0.2 -0.2,-0.1 -0.4,-0.1 -0.7,-0.1 0,-0.3 0.2,-0.3 0.3,-0.3 h 1.6 c 0.1,0.1 0.2,0.2 0.2,0.3 l 1.1,-0.9 c 0.6,-0.5 1,-1.2 1.5,-1.9 -0.1,-0.1 -0.1,-0.2 -0.2,-0.3 -0.2,-0.2 -0.5,-0.4 -0.7,-0.6 -0.2,-0.2 -0.4,-0.4 -0.6,-0.7 0,-0.1 0,-0.2 -0.1,-0.3 -0.1,0 -0.1,-0.1 -0.2,-0.2 -0.1,-0.2 -0.2,-0.3 -0.4,-0.5 0,-0.1 -0.1,-0.1 -0.1,-0.2 l -0.1,-0.1 c -0.1,-0.1 -0.2,-0.2 -0.2,-0.3 v -0.2 c 0,-0.1 -0.1,-0.1 -0.2,-0.1 h -0.1 c -0.1,-0.1 -0.1,-0.2 -0.1,-0.2 V 55 c -0.1,-0.1 -0.2,-0.2 -0.2,-0.3 -0.1,-0.1 -0.1,-0.2 -0.2,-0.3 V 54.2 C 147.8,54.1 147.7,54 147.6,54 a 0.76,0.76 0 0 1 -0.2,-0.4 c 0,-0.1 -0.1,-0.2 -0.1,-0.3 0,-0.2 -0.1,-0.3 -0.2,-0.4 l -0.3,-0.3 a 0.76,0.76 0 0 1 -0.2,-0.4 c 0,-0.1 -0.1,-0.2 -0.1,-0.3 0,-0.1 -0.1,-0.2 -0.2,-0.3 -0.1,-0.1 -0.1,-0.2 -0.2,-0.3 -0.1,-0.3 -0.3,-0.7 -0.4,-1 -0.1,-0.3 -0.2,-0.7 -0.2,-1.1 v -0.4 a 0.76,0.76 0 0 0 -0.2,-0.4 V 48 c 0.1,-0.2 0,-0.3 0,-0.4 l -0.1,-0.1 h -0.1 l -0.1,-0.1 -1.3,-0.9 -2,-1.4 c -0.2,-0.1 -0.4,-0.2 -0.5,-0.3 H 141 l -0.3,0.3 a 0.76,0.76 0 0 1 -0.4,0.2 c -0.1,0 -0.2,0 -0.2,0.1 -0.1,0.1 -0.3,0.2 -0.4,0.3 -0.1,0.1 -0.2,0.1 -0.3,0.2 l -0.2,0.2 v 0.1 h 0.1 c 0,0 0.1,0.1 0.2,0.1 0,0.1 -0.1,0.1 -0.1,0.2 -0.2,0.2 -0.4,0.3 -0.6,0.5 -0.3,0.3 -0.7,0.5 -1,0.8 -0.1,0.1 -0.2,0.2 -0.3,0.4 0.1,0 0.1,0.1 0.2,0.1 v 0.2 l -0.4,0.4 c 0,0 0,0.1 -0.1,0.1 -0.1,0 -0.1,0.1 -0.2,0.1 0,0.1 0.1,0.2 0.2,0.2 0,0 0.1,0 0.1,0.1 0,0 0.1,0 0.1,0.1 l 0.1,0.1 c 0,0.1 -0.1,0.1 -0.1,0.2 v 0.1 c 0.1,0.2 0.1,0.4 0.2,0.6 0.1,0.2 0.1,0.3 0.2,0.5 0,0.2 0.1,0.4 0.2,0.6 v 0.1 c 0.1,0 0.1,0 0.2,0.1 -0.1,0.3 -0.2,0.7 -0.1,1 l 0.3,0.3 c -0.1,0 -0.1,0 -0.2,-0.1 0.1,0.1 0.3,0.1 0.4,0.3 0,0.2 0.1,0.5 0.2,0.8 0,0.3 0.2,0.6 0.2,0.8 l 0.2,0.2 c 0,0.2 0.2,0.5 0.2,0.7 v 0.1 c 0,0.1 0.1,0.2 0.2,0.3 0.1,0 0.2,0.1 0.2,0.1 0,0 0,0.1 0.1,0.1 l 0.1,0.1 v 0.1 c -0.1,0.1 -0.2,0.2 -0.3,0.4 v 0.1 c 0,0.1 0.1,0.1 0.1,0.2 0,0.1 -0.1,0.2 -0.1,0.3 0.1,0.1 0.2,0.1 0.3,0.1 0.1,0 0.2,-0.1 0.2,-0.1 l 0.3,0.3 c 0,0 0,0.1 0.1,0.1 0,0.1 0,0.2 -0.1,0.3 0,0.1 0.1,0.1 0.1,0.2 v 0.1 c 0,0.1 -0.1,0.2 -0.1,0.2 h -0.2 l -0.6,-0.3 h -0.1 c -0.2,0.1 -0.2,0.3 -0.3,0.5 -0.1,-0.1 -0.2,-0.1 -0.3,-0.2 -0.1,0.2 -0.1,0.4 0,0.7 l 0.2,0.2 h 0.4 c 0.1,0.1 0.2,0.1 0.2,0.2 0.1,0 0.1,0.1 0.2,0 0,0 0.1,-0.1 0.2,-0.1 l 0.1,-0.1 c 0.1,0.1 0.2,0.2 0.3,0.2 h 0.2 c 0.1,-0.1 0.2,-0.2 0.3,-0.2 0,0 0.1,0 0.2,0.1 0,0 0,0.1 0.1,0.1 0,0.1 0,0.2 -0.1,0.2 H 141 l -0.1,0.1 c 0,0.1 0.1,0.1 0.1,0.2 0.2,0 0.4,0 0.6,-0.1 0.1,0.1 0.1,0.2 0.2,0.3 -0.1,0.1 -0.2,0.2 -0.2,0.4 0,0.1 0.1,0.2 0.1,0.3 V 62 c 0,0.1 0.1,0.2 0.2,0.2 v 0.1 h 0.3 c 0,0.1 -0.1,0.2 -0.1,0.3 -0.1,0.1 -0.1,0.2 -0.2,0.3 0,0.1 0,0.1 0.1,0.2 h 0.1 c 0,0 0.1,0.1 0.2,0.1 v 0.1 c 0.3,0.1 0.5,0.3 0.8,0.5 0.3,0.3 0.7,0.6 1.1,0.6 h 0.3 c 0.4,-0.3 0.8,-0.7 1.3,-0.8 0.2,0 0.4,-0.1 0.5,-0.1 M 141,59 c -0.2,-0.1 -0.2,-0.2 -0.3,-0.3 l 0.1,-0.1 c 0.2,0 0.3,0.1 0.3,0.3 -0.1,0 -0.1,0 -0.1,0.1 m 54,-15.3 h 0.1 z"
         id="path856" />
      <path
         d="m 188.6,28.1 c 0.1,0.1 0.3,0.2 0.4,0.3 0,0 0.1,0 0.1,0.1 v 0.4 l 0.1,0.1 c 0.1,0.1 0.2,0.2 0.3,0.2 0.1,0.1 0.1,0.2 0.2,0.3 0,0.1 0.1,0.1 0.1,0.2 0.1,0.2 0.2,0.4 0.3,0.5 l 0.1,0.1 h 0.1 l 0.1,-0.1 a 0.76,0.76 0 0 1 -0.2,-0.4 v -0.2 l 0.1,-0.1 c 0.1,-0.1 0.3,0 0.4,0.1 v 0.1 h 0.1 v 0.4 c -0.1,0.1 -0.2,0.3 0,0.4 V 31 c -0.1,0 -0.1,0.1 -0.1,0.1 h 0.1 c 0.3,0 0.5,0.1 0.5,0.4 0,0.1 0.1,0.1 0.1,0.2 0.1,0.1 0.1,0.2 0.2,0.3 v 0.5 c -0.1,0.1 -0.1,0.2 -0.2,0.3 -0.1,0.1 -0.1,0.2 0,0.4 v 0.3 h 0.3 c 0.3,0.2 0.4,0.4 0.4,0.7 0,0 0,0.1 0.1,0.1 0.1,0.1 0.3,0.3 0.3,0.4 0.1,0.2 0.2,0.4 0.3,0.5 0,0.1 0,0.2 -0.1,0.3 v 0.1 c 0,0.1 0.1,0.2 0.1,0.4 0.1,0.1 0.2,0.1 0.2,0.2 v 0.1 l 0.1,0.1 V 37 c 0,0.1 0.1,0.2 0.1,0.3 0,0 0.1,0.1 0.1,0.2 v 0.3 c -0.1,0.1 -0.1,0.2 0,0.3 0,0.1 0.1,0.1 0.1,0.2 0.1,0.1 0.2,0.1 0.3,0.2 v 0.1 h 0.1 v 0.5 l 0.1,-0.1 c 0,0 0,-0.1 0.1,-0.1 h 0.2 c 0,0 0.1,0 0.1,0.1 v 0.1 h 0.1 c 0,0.3 0,0.7 0.2,0.9 0,0.1 0,0.2 -0.1,0.3 l -0.2,-0.2 c 0,0 -0.1,0 -0.1,-0.1 -0.1,-0.1 -0.1,-0.2 -0.1,-0.3 -0.1,0 -0.1,0.1 -0.2,0.2 0,0.1 0.1,0.2 0.1,0.3 v 0.7 c 0.1,0.2 0.3,0.2 0.4,0.4 l -0.1,0.1 v 0.2 h 0.3 c 0.1,0 0.3,0.1 0.3,0.2 0,0 0.1,0 0.1,0.1 v 0.3 h -0.1 c -0.1,0 -0.1,0.1 0,0.2 0,0.2 -0.1,0.4 -0.1,0.5 0,0.1 0.1,0.2 0.1,0.3 0.1,0.1 0.1,0.2 0.2,0.3 0.1,0.1 0.1,0.2 0.2,0.3 v 0.3 H 195 c 0,0 -0.1,0 -0.1,-0.1 -0.5,-0.2 -0.9,-0.6 -1.3,-1 l -0.1,-0.1 c -0.1,-0.1 -0.2,-0.1 -0.3,-0.2 l -0.3,-0.3 c -0.1,0 -0.2,-0.1 -0.2,-0.1 -0.1,0 -0.1,0 -0.2,0.1 0.2,0.4 0.7,0.6 1,0.9 l 0.3,0.8 c -0.1,0.1 -0.2,0.1 -0.3,0.2 H 190 c -0.1,0 -0.1,0 -0.2,0.1 -0.3,-0.2 -0.6,-0.1 -0.9,-0.1 -0.9,0 -1.7,-0.1 -2.6,-0.2 h -0.5 c 0.1,-0.4 0.4,-0.7 0.5,-1.1 v -0.1 c 0,-0.2 -0.1,-0.4 -0.1,-0.7 v -0.1 c 0.1,-0.3 0.1,-0.7 0.1,-1 l -0.2,-0.2 c 0,-0.1 0.1,-0.2 0.1,-0.3 0,-0.1 0,-0.2 -0.1,-0.3 0.1,-0.2 0.2,-0.3 0.4,-0.3 0.1,-0.2 0.1,-0.4 0,-0.5 -0.1,0 -0.1,0 -0.2,-0.1 h -0.2 c -0.1,0 -0.2,-0.1 -0.2,-0.2 0,-0.2 -0.1,-0.5 -0.2,-0.7 0,-0.1 0.1,-0.2 0.1,-0.3 -0.1,-0.2 -0.1,-0.3 -0.1,-0.5 l 0.3,-0.3 c 0,-0.3 -0.1,-0.5 -0.2,-0.8 -0.1,-0.1 -0.3,-0.2 -0.4,-0.3 -0.1,-0.2 -0.3,-0.4 -0.4,-0.6 -0.1,-0.4 -0.2,-0.8 -0.4,-1.1 v -0.4 l -0.3,-0.3 c -0.1,-0.2 -0.1,-0.3 -0.2,-0.5 -0.1,-0.2 -0.1,-0.3 -0.2,-0.5 l -0.5,-0.5 c -0.1,-0.2 -0.1,-0.4 -0.2,-0.5 -0.1,-0.2 0,-0.4 0,-0.5 -0.2,0 -0.3,-0.1 -0.5,-0.2 h -0.3 c 0,-0.1 -0.1,-0.2 -0.1,-0.2 l -0.2,-0.2 c 0,0 0,-0.1 -0.1,-0.1 v -0.3 c 0,-0.2 0,-0.4 0.1,-0.6 0,-0.2 -0.2,-0.3 0,-0.6 0.2,-0.1 0.4,-0.1 0.7,-0.2 0.8,-0.1 1.6,-0.1 2.5,0 l 0.1,-0.1 c 0,-0.1 0.1,-0.2 0.1,-0.2 v -0.1 c -0.2,-0.5 0,-1.1 0,-1.6 0.1,-0.4 0.2,-0.8 0.2,-1.2 0.1,-0.2 0.3,-0.2 0.5,-0.2 0.1,0 0.1,0 0.2,-0.1 0.2,0.1 0.4,0.2 0.7,0.1 h 0.4 c 0.2,0 0.3,0.1 0.5,0.1 h 0.3 c 0.1,0 0.2,0 0.4,0.1 l -0.1,0.1 c -0.1,0 -0.2,0.1 -0.3,0.1 -0.1,0 -0.3,0.1 -0.4,0.1 v 0.1 h 0.9 c 0.1,0.1 0.3,0.2 0.4,0.3 -0.2,0.2 -0.1,0.4 -0.1,0.6 v 0.1 l -0.1,0.1 c 0,0 0.1,0 0.1,0.1 -0.4,0.3 -0.4,0.5 -0.5,0.7"
         id="path858" />
      <path
         d="M 193.6,37.7 Z"
         id="path860" />
      <path
         d="m 195.7,47.5 c 0,-0.1 0,-0.2 -0.1,-0.3 -0.1,-0.1 -0.1,-0.2 0,-0.4 v -0.3 c 0,-0.1 -0.2,-0.2 -0.3,-0.3 l -0.1,-0.1 a 0.45,0.45 0 0 1 0,-0.5 v -0.5 c -0.4,-0.2 -0.8,-0.1 -1.3,-0.2 l -2.7,-0.3 h -1.4 c -0.1,0 -0.2,0.1 -0.2,0.1 -0.5,-0.1 -0.9,-0.1 -1.4,0 -0.2,0 -0.4,0 -0.5,-0.1 -0.1,0 -0.3,-0.1 -0.5,0 H 187 c -0.1,0.2 0.1,0.3 0.2,0.4 0.4,0.4 0.7,0.8 1,1.2 0,0.1 0.1,0.2 0.1,0.3 -0.1,-0.1 -0.2,-0.1 -0.3,-0.1 l -0.6,-0.6 c -0.3,-0.4 -0.8,-0.6 -1.2,-0.8 H 186 c 0,0.1 -0.1,0.1 -0.1,0.2 0,0.1 0,0.2 0.1,0.3 0,0.1 0,0.1 0.1,0.2 a 0.78,0.78 0 0 1 -0.4,0.4 l -0.1,0.1 c 0,0.1 0,0.1 0.1,0.1 h 0.3 c 0.1,0 0.2,-0.1 0.2,-0.1 v -0.3 c 0.1,0.3 0,0.5 -0.1,0.6 h -0.2 c -0.1,0 -0.1,0 -0.1,0.1 a 0.78,0.78 0 0 0 0.4,0.4 c 0,0.1 0.1,0.1 0.1,0.2 0,0.1 0,0.1 -0.1,0.2 -0.1,0 -0.2,-0.1 -0.4,-0.1 h -0.1 c -0.1,0 -0.3,0.1 -0.3,0.2 0,0.3 -0.2,0.6 -0.4,0.9 0,0.1 -0.1,0.2 -0.1,0.3 0.1,0.3 0.1,0.5 0.3,0.7 0.1,0.1 0.1,0.2 -0.1,0.2 -0.1,0 -0.2,0.1 -0.3,0.1 -0.2,0 -0.3,0.1 -0.3,0.3 0,0.1 0,0.2 0.1,0.3 -0.1,0.2 -0.2,0.4 -0.4,0.6 v 0.4 c -0.1,0.2 -0.2,0.3 -0.3,0.4 -0.1,0.2 -0.3,0.2 -0.4,0.4 l 0.2,0.2 c 0,0.1 -0.1,0.2 -0.1,0.3 -0.1,0.1 -0.3,0.1 -0.4,0.2 a 0.47,0.47 0 0 0 0.1,0.6 v 0.1 H 183 c 0,0.1 -0.1,0.1 -0.1,0.2 0,0.1 -0.1,0.2 -0.1,0.3 -0.2,0.2 -0.3,0.4 -0.4,0.6 -0.2,0.3 -0.4,0.5 -0.5,0.8 -0.2,0.1 -0.4,0.3 -0.5,0.4 0,0.1 -0.1,0.3 -0.1,0.4 l -0.9,1.3 c 0,0.1 -0.1,0.2 -0.1,0.3 v 0.1 c 0.1,0 0.2,0.1 0.3,0.1 h 0.2 l 1.2,0.3 c 0.2,0 0.5,0.1 0.7,0.1 l 1.1,0.3 c 0.2,0.1 0.4,0.1 0.5,0.2 0.1,0.1 0.1,0.2 0.2,0.3 0,0.1 0.1,0.1 0.1,0.2 0.1,0.2 0.1,0.4 0.2,0.6 v 0.1 c 0,0.2 0.1,0.4 0.1,0.6 v 0.4 c 0,0.2 0.1,0.4 0.1,0.6 a 0.76,0.76 0 0 0 0.2,0.4 v 0.1 c 0.1,-0.1 0.3,-0.1 0.4,-0.2 0.1,0 0.2,0 0.3,-0.1 0.2,0 0.3,0.1 0.5,0.1 0,-0.1 0.1,-0.2 0.1,-0.3 h -0.1 c 0,-0.1 0,-0.1 -0.1,-0.1 -0.1,-0.1 -0.1,-0.1 -0.2,-0.1 -0.1,0 -0.1,0 -0.2,-0.1 0,0 0,-0.1 0.1,-0.1 0.1,0 0.2,-0.1 0.3,-0.1 l 0.1,0.1 v 0.1 h 0.1 c 0.1,0 0.2,0.1 0.2,0.1 0.1,0 0.1,0 0.2,0.1 0.1,-0.2 0,-0.5 0.3,-0.7 v -0.1 l -0.1,-0.1 c 0,0 0,-0.1 0.1,-0.1 h 0.5 c 0.1,-0.1 0.2,-0.1 0.3,-0.2 0,-0.2 0.1,-0.4 0.3,-0.4 h 0.2 c 0.1,-0.2 0.1,-0.4 0.2,-0.7 a 0.55,0.55 0 0 1 0.3,-0.5 l 0.3,-0.3 v 0.3 c 0,0 0.1,0 0.1,0.1 0.1,0 0.1,0.1 0.2,0.1 v -0.5 c 0,0 -0.1,-0.1 -0.2,-0.1 -0.1,0 -0.1,0 -0.2,0.1 -0.1,-0.2 -0.1,-0.3 0.1,-0.5 0.1,-0.1 0.3,-0.2 0.4,-0.4 0.1,-0.2 0.3,-0.3 0.4,-0.3 h 0.2 c 0,-0.1 -0.1,-0.1 -0.1,-0.2 V 57 c -0.1,-0.1 -0.2,-0.1 -0.3,-0.2 0,-0.1 0.1,-0.1 0.1,-0.1 h 0.2 c 0.1,0 0.2,0.1 0.3,0.1 l 0.6,-0.6 c 0.1,-0.1 0.1,-0.2 0.1,-0.3 v -0.1 c 0,-0.1 -0.1,-0.1 -0.1,-0.2 0,-0.1 0,-0.2 0.1,-0.3 v -0.1 c 0,-0.1 0.1,-0.2 0.1,-0.4 0,-0.1 0.1,-0.2 0.1,-0.3 v -0.3 a 0.45,0.45 0 0 1 0,-0.5 l 0.1,-0.1 c 0.1,-0.2 0.1,-0.3 0.3,-0.3 0.1,0 0.2,-0.1 0.4,-0.2 0,-0.1 0.1,-0.2 0,-0.2 v -0.1 c 0,-0.1 -0.1,-0.2 -0.1,-0.2 a 0.76,0.76 0 0 1 0.2,-0.4 h -0.1 c 0,-0.1 -0.1,-0.2 -0.3,-0.3 0,-0.1 0.1,-0.1 0.1,-0.1 h 0.2 c 0.1,0 0.1,0 0.2,0.1 h -0.1 c -0.1,0.1 0,0.3 0,0.4 h 0.6 c 0.1,-0.2 -0.1,-0.3 -0.2,-0.4 -0.1,0 -0.2,-0.1 -0.3,0 v -0.4 c -0.1,-0.1 -0.1,-0.1 -0.2,-0.3 v -0.1 c 0,-0.1 0.1,-0.2 0.1,-0.3 0,-0.3 0.1,-0.6 0.4,-0.7 l 0.1,-0.1 v -0.3 c -0.1,-0.1 -0.1,-0.2 0,-0.4 0.1,-0.1 0.2,-0.3 0.3,-0.4 0.2,0.1 0.3,0.1 0.4,0.1 h 0.2 c 0.1,0 0.2,-0.1 0.2,-0.2 0,0 0,-0.1 -0.1,-0.1 0,0 0,-0.1 -0.1,-0.1 -0.1,-0.1 -0.2,-0.3 -0.3,-0.4 h -0.1 c 0,-0.1 0.1,-0.1 0.2,-0.2 v -0.4 c 0.1,0 0.2,-0.1 0.3,-0.1 0.3,-0.1 0.6,0 0.9,0 h 0.5 c 0.4,0.3 0.4,0.2 0.5,0 z"
         id="path862" />
      <path
         d="M 188.5,60.5 Z"
         id="path864" />
      <path
         d="M 184.5,60.1 Z"
         id="path866" />
      <path
         d="M 191.5,54.9 Z"
         id="path868" />
      <path
         d="m 146.6,26.1 c 0.1,0 0.1,0.1 0.2,0.1 l 0.3,0.3 h 0.5 l 1.4,0.3 h 0.1 c 0.1,0 0.1,0 0.2,0.1 0.2,0 0.4,0.1 0.6,0.1 0.1,0 0.3,0.1 0.4,0.1 0.1,0 0.2,0.1 0.3,0.1 0,0 0.1,0.1 0.1,0.2 -0.5,0 -1,-0.1 -1.5,-0.1 -0.5,-0.1 -0.9,-0.3 -1.4,-0.3 -0.1,0 -0.2,0 -0.1,0.1 h 0.1 l 0.2,0.2 c 0,0.1 -0.1,0.2 0,0.3 0,0.1 0.1,0.2 0.2,0.3 l 1.2,1.2 c 0.3,0.3 0.5,0.6 0.8,0.9 0.4,0.4 0.8,0.9 1.1,1.3 0,0 0.1,0 0.1,0.1 0.1,0 0.3,-0.1 0.3,-0.2 0,-0.2 -0.1,-0.3 0,-0.5 0.2,-0.4 0.4,-0.7 0.7,-1.1 0,-0.1 0.1,-0.1 0.2,-0.2 h 0.1 c 0.1,0 0.2,0 0.3,-0.1 0.3,-0.1 0.5,-0.3 0.8,-0.4 l 1.1,-0.6 c 0.4,-0.2 0.8,-0.5 1.1,-0.7 0.3,-0.1 0.5,-0.3 0.7,-0.5 0.3,-0.3 0.7,-0.5 1.1,-0.7 0.2,0 0.3,0 0.5,-0.1 0.4,-0.1 0.7,-0.3 1.1,-0.4 h 0.3 c 0.1,0 0.2,-0.1 0.2,-0.2 0.1,-0.2 0.2,-0.3 0.3,-0.3 h 0.4 c 0.2,0.1 0.3,0.1 0.5,0.2 a 1.08,1.08 0 0 1 0.7,-0.3 c 0.4,-0.1 0.9,-0.1 1.3,-0.2 0.2,-0.3 0.2,-0.7 0.5,-0.8 0.1,0 0.1,-0.3 0.1,-0.4 0,-0.6 0,-1.2 -0.3,-1.7 0.2,-0.2 0.2,-0.5 0.2,-0.8 0,-0.8 -0.1,-1.5 0,-2.3 -0.2,-0.3 -0.1,-0.6 -0.4,-0.8 v -0.7 c -0.1,0.1 -0.2,0.3 -0.3,0.4 v 0.3 l -0.1,0.1 h -0.1 c -0.1,-0.1 -0.4,-0.1 -0.4,-0.1 h -0.2 c -0.2,0 -0.3,0.1 -0.4,0.2 -0.1,0.2 -0.3,0.2 -0.5,0.3 -0.2,0.1 -0.3,0.2 -0.5,0.2 0,0 -0.1,0 -0.1,-0.1 -0.1,0.1 -0.2,0.1 -0.2,0.2 -0.2,0 -0.2,-0.1 -0.2,-0.1 l 0.1,-0.1 -0.1,-0.1 c 0,-0.1 -0.1,-0.2 -0.1,-0.2 -0.2,0 -0.4,-0.1 -0.6,0 -0.1,0 -0.1,0 -0.2,0.1 -0.1,0 -0.2,-0.1 -0.3,-0.1 l -0.2,0.2 c -0.1,0.1 -0.1,0.2 0,0.3 h 0.1 l 0.2,0.2 h 0.8 c 0,0 0,0.1 -0.1,0.1 -0.1,0.1 -0.3,0.1 -0.4,0.2 -0.1,0 -0.3,0.1 -0.5,0.1 h -0.4 c 0,-0.1 0,-0.2 -0.1,-0.2 0,-0.1 -0.1,-0.2 -0.2,-0.2 H 158 c -0.1,0 -0.1,0.1 -0.1,0.1 v 0.4 c 0,0.2 -0.1,0.3 -0.2,0.4 h -0.8 c -0.2,0.2 -0.4,0.3 -0.5,0.4 h -0.6 c 0,0 -0.1,0.1 -0.2,0.1 -0.2,0.1 -0.4,0 -0.5,0.1 -0.2,0.1 -0.3,0.2 -0.5,0.3 h -0.4 c 0,0.1 -0.1,0.1 -0.1,0.2 v 0.2 c -0.2,0.1 -0.3,-0.1 -0.5,-0.1 -0.1,0 -0.1,0.1 -0.2,0.1 h -0.1 c -0.2,-0.1 -0.2,-0.4 -0.5,-0.4 h -1.1 c -0.1,0 -0.1,0 -0.2,0.1 h -0.2 c -0.1,0 -0.3,-0.1 -0.4,-0.1 L 150.8,21 c -0.2,0.1 -0.4,0.3 -0.6,0.4 H 150 c -0.1,-0.1 -0.2,-0.2 -0.4,-0.2 -0.2,0.1 -0.4,0.1 -0.6,0.2 -0.2,0.1 -0.2,0.3 -0.2,0.5 0,0.1 0.1,0.2 0.1,0.3 a 2.47,2.47 0 0 1 -0.4,0.9 c -0.1,0.1 -0.2,0.3 -0.2,0.5 0,0.1 -0.1,0.1 -0.1,0.2 h -0.9 c -0.3,0 -0.6,-0.1 -0.9,0 -0.1,0.2 -0.3,0.4 -0.5,0.6 -0.1,0 -0.2,0.1 -0.4,0.1 0,0 0.1,0 0.1,0.1 -0.2,0.1 -0.3,0.1 -0.5,0.2 V 25 c 0,0 0,0.1 -0.1,0.1 0,0.1 0.1,0.1 0.1,0.1 0.8,0.2 1.1,0.6 1.5,0.9"
         id="path870" />
      <path
         d="M 145.8,24.5 Z"
         id="path872" />
      <path
         d="m 168.3,70.6 c 0,-0.1 -0.1,-0.3 -0.1,-0.4 l -0.4,-0.4 c 0,-0.1 -0.1,-0.1 -0.1,-0.2 0,-0.1 -0.1,-0.2 -0.2,-0.3 l -1,-1 c 0,0 -0.1,0 -0.1,-0.1 -0.6,0.2 -1,0.6 -1.5,0.9 l -0.7,0.7 c -0.1,0.2 -0.2,0.3 -0.2,0.5 v 3.4 c 0,0.1 0,0.3 0.1,0.4 0,0.1 0,0.3 0.2,0.4 l 0.1,-0.1 h 0.2 l 0.2,-0.2 0.2,0.2 c 0.1,0 0.1,0 0.2,-0.1 0.1,-0.1 0.2,-0.2 0.3,-0.4 0.2,0 0.4,0.1 0.9,-0.3 h 0.1 c 0.2,-0.1 0.3,0 0.5,-0.1 v -0.2 c 0,0 0,0.1 0.1,0.1 l 0.1,0.3 h 0.1 c 0.1,0 0.1,0.1 0.2,0 0.2,-0.2 0.4,0 0.6,-0.1 0.1,0.1 0.3,-0.2 0.3,-0.1 0,0 0,0.1 0.1,0.1 0.1,0 0.2,-0.1 0.3,-0.2 v -2.1 c -0.3,-0.2 -0.4,-0.5 -0.5,-0.7 m -0.1,2.8"
         id="path874" />
      <path
         d="M 168.2,73.4 Z"
         id="path876" />
      <path
         d="M 164.2,17.4 Z"
         id="path878" />
      <path
         d="m 164.7,24.6 h 0.5 c 0,0 0.1,0 0.1,-0.1 0.1,0 0.1,-0.1 0.2,-0.1 h 0.4 c 0.3,0 0.6,0.1 0.8,0.1 h 1.6 c 0.2,0 0.3,-0.1 0.4,-0.4 0.1,-0.2 0.2,-0.5 0.2,-0.7 0,-0.6 0,-1.3 -0.1,-1.9 0,-0.3 -0.1,-0.5 0.1,-0.8 -0.2,-0.5 -0.1,-1 -0.2,-1.5 -0.1,0 -0.1,0.1 -0.2,0.1 v -0.1 c -0.3,0.3 -0.5,0.5 -0.8,0.7 l -0.6,0.6 c -0.2,0.2 -0.3,0.3 -0.4,0.5 l -0.5,0.5 c -0.1,0.1 -0.2,0.3 -0.3,0.4 -0.2,0.2 -0.3,0.3 -0.5,0.4 -0.1,0 -0.1,0.1 -0.2,0.2 -0.3,0.3 -0.6,0.6 -0.9,1 v 0.4 c 0.2,0.4 0.2,0.6 0.4,0.7"
         id="path880" />
      <path
         d="M 183.2,62.8 Z"
         id="path882" />
      <path
         d="m 184.3,61.7 v -0.3 c -0.1,-0.2 -0.1,-0.3 -0.2,-0.5 -0.2,-0.3 -0.2,-0.6 -0.2,-1 -0.7,-0.3 -1.4,-0.6 -2.2,-0.7 -0.3,0.1 -0.5,-0.1 -0.8,-0.2 -0.3,-0.1 -0.5,-0.2 -0.9,-0.2 v 0.1 h -0.1 l 0.3,0.6 c 0.1,0.2 0.1,0.4 0.2,0.6 0.1,0.2 0.2,0.5 0.2,0.8 0,0.5 0.1,1 0.2,1.5 h 0.2 c 0.1,0.1 0.2,0.1 0.3,0.2 0.2,-0.1 0.4,-0.1 0.7,0 0.1,0 0.3,0.1 0.4,0.1 a 0.45,0.45 0 0 0 0.5,0 h 0.2 c 0.1,-0.1 0.2,-0.1 0.3,0 0.1,0.1 0.3,0.2 0.4,0.3 l 0.1,0.1 c 0,0 0.1,0 0.1,0.1 h 0.5 v -0.5 c 0,-0.1 -0.1,-0.2 -0.1,-0.3 -0.1,-0.1 -0.1,-0.4 -0.1,-0.7"
         id="path884" />
      <path
         d="M 184.6,62.9 Z"
         id="path886" />
      <path
         d="m 145.3,46.8 h 0.2 c 0,-0.4 0,-0.7 -0.1,-0.9 0,-0.1 -0.1,-0.2 -0.1,-0.2 -0.1,-0.1 -0.2,-0.3 -0.3,-0.5 -0.1,-0.1 -0.1,-0.3 -0.1,-0.4 0,-0.5 -0.1,-1 -0.2,-1.6 0,-0.2 -0.1,-0.4 0.1,-0.7 0.1,-0.2 0,-0.3 -0.2,-0.5 0,0 -0.1,0 -0.1,0.1 -0.1,0 -0.2,0.1 -0.3,0.2 -0.3,0.4 -0.8,0.7 -1.2,0.9 l -1.2,0.9 c -0.1,0.1 -0.1,0.1 -0.1,0.2 0,0.2 0.1,0.2 0.2,0.3 l 0.9,0.6 c 0.7,0.6 1.6,1.1 2.4,1.5 -0.1,0.1 0,0.1 0.1,0.1 -0.1,0 -0.1,0 0,0 m 19.6,18.7 v 0.2 c 0,0 0,0.1 0.1,0.1 l 0.9,1.1 c 0,0 0.1,0 0.2,0.1 0.4,-0.5 0.9,-0.9 1.3,-1.4 -0.3,-0.2 -0.6,-0.2 -0.9,-0.2 -0.3,0 -0.5,0 -0.8,-0.1 -0.1,0 -0.2,-0.1 -0.3,-0.1 h -0.6 c 0.2,0.1 0.2,0.2 0.1,0.3 m -0.2,0.9 c -0.1,-0.1 -0.2,-0.1 -0.3,-0.1 h -0.2 c -0.1,0.8 -0.1,1.7 0.1,2.5 h 0.1 v 0.1 c 0.5,-0.4 0.8,-0.7 1.1,-1.1 0.2,-0.2 0.2,-0.4 0,-0.6 -0.3,-0.3 -0.6,-0.5 -0.8,-0.8 M 137.6,41.6 c 0.3,0.2 0.5,0.5 0.8,0.7 0.2,0.2 0.4,0.3 0.7,0.5 l 0.2,0.2 c 0.2,0.3 0.5,0.5 0.8,0.6 0.1,0 0.1,0.1 0.2,0.1 0.1,0 0.1,0.1 0.2,0.1 0.1,0 0.2,0.1 0.3,0.1 h 0.2 c 0.2,0 0.3,-0.1 0.4,-0.2 0.5,-0.4 1.1,-0.8 1.5,-1.4 0.1,-0.2 0.3,-0.3 0.5,-0.4 0.4,-0.2 0.7,-0.4 1.1,-0.7 a 1.1,1.1 0 0 0 0.6,-1 c 0,-0.3 0.1,-0.6 0.1,-0.9 0,-0.2 0.1,-0.4 0.1,-0.5 0.2,-0.4 0.4,-0.7 0.7,-1.1 l 1.3,-2.1 c 0.1,-0.4 0.5,-0.3 0.7,-0.5 0.1,-0.2 0,-0.3 0,-0.4 0,-0.1 0,-0.1 -0.1,-0.2 h -0.1 c 0,0 0,-0.1 -0.1,-0.1 0.5,-0.3 0.8,-0.8 1.1,-1.2 0.2,-0.3 0.4,-0.6 0.7,-0.7 0.2,-0.1 0.5,-0.2 0.7,-0.3 h 0.2 c 0.1,0 0.2,0.1 0.3,0.1 h 0.1 c 0,0 0.2,-0.1 0.2,-0.2 v -0.2 c 0,-0.1 -0.1,-0.2 -0.2,-0.2 -0.4,-0.3 -0.7,-0.7 -0.9,-1.1 a 1.59,1.59 0 0 0 -1,-0.8 c -0.3,-0.1 -0.5,-0.2 -0.7,-0.3 -0.8,-0.2 -1.6,-0.5 -2.3,-1 h 0.3 c 0.2,0.1 0.4,0.1 0.6,0.2 0.1,0 0.1,0 0.2,0.1 0.2,0.1 0.3,0.1 0.5,0.2 l 0.9,0.3 h 0.2 c -0.2,-0.3 -0.4,-0.7 -0.7,-1 l -1.7,-2 -1.1,-1.1 c -0.1,0 -0.2,0 -0.3,-0.1 l -0.2,0.2 v 0.1 c 0,0.1 -0.1,0.2 -0.1,0.3 v 0.1 c 0,0 0,-0.1 -0.1,-0.1 -0.1,0.1 -0.2,0.3 -0.3,0.3 -0.2,0.1 -0.3,0.2 -0.5,0.3 0,0.1 -0.1,0.2 -0.1,0.2 v 0.6 c 0,0.2 -0.2,0.4 -0.1,0.6 v 0.1 c 0,0.1 -0.1,0.1 -0.1,0.2 -0.1,0 -0.3,0 -0.4,0.1 0,0 -0.1,0 -0.1,0.1 -0.2,0.1 -0.5,0.2 -0.7,0.3 -0.1,0 -0.1,0.1 -0.2,0.2 0.1,0.2 0.2,0.4 0.2,0.6 0,0.1 0,0.1 -0.1,0.1 h -0.2 c -0.1,0 -0.2,0.2 -0.1,0.3 0,0 0,0.1 0.1,0.1 v 0.1 c 0,0.1 0.1,0.2 0.1,0.2 0,0.1 -0.1,0.2 -0.3,0.3 -0.1,0.1 -0.2,0.2 -0.3,0.2 -0.1,0 0,0.2 0,0.2 l 0.1,0.1 c 0.1,0.1 0.2,0.2 0.4,0.2 0.1,0 0.1,0 0.2,-0.1 0.1,0 0.1,0 0.2,-0.1 h 0.2 l 0.1,0.1 h -0.1 c -0.1,0 -0.2,-0.1 -0.3,-0.1 -0.2,0.1 -0.4,0.2 -0.6,0.2 -0.1,-0.1 -0.3,-0.1 -0.4,-0.2 -0.1,0 -0.2,0.1 -0.3,0.1 v -0.1 c -0.1,0.1 -0.1,0.2 -0.1,0.3 0,0.1 0.1,0.1 0.1,0.2 v 0.3 c -0.2,0.1 -0.3,0.2 -0.5,0.3 a 0.76,0.76 0 0 0 -0.2,0.4 c 0,0.1 0.1,0.2 0.1,0.4 0,0.1 0,0.2 -0.1,0.2 0,-0.1 -0.1,-0.2 -0.1,-0.3 l 0.1,-0.1 c 0,0 0,-0.1 -0.1,-0.1 v -0.2 c -0.1,-0.1 -0.2,-0.2 -0.4,-0.1 -0.1,0 -0.2,0.1 -0.3,0.1 -0.1,0 -0.2,-0.1 -0.3,-0.2 0.1,-0.1 0.3,-0.2 0.4,-0.4 v -0.1 h -0.1 c -0.1,0 -0.2,0 -0.2,-0.1 -0.1,-0.1 -0.2,-0.3 -0.4,-0.3 -0.2,0.1 -0.4,0.2 -0.6,0.2 -0.1,-0.1 -0.2,-0.2 -0.2,-0.4 0.1,0 0.1,-0.1 0.2,-0.1 0,-0.1 0.1,-0.1 0.1,-0.2 0.1,0 0.1,-0.1 0.1,-0.2 0,-0.1 -0.1,-0.2 -0.2,-0.2 -0.1,0 -0.3,0 -0.4,-0.1 -0.2,-0.1 -0.4,-0.1 -0.6,-0.1 0,0 -0.1,0 -0.1,0.1 v 0.1 c 0.1,0.1 0.1,0.2 0.2,0.3 0,0.1 0,0.1 0.1,0.2 0,0.1 -0.1,0.3 -0.1,0.4 0,0.1 0.1,0.2 0.2,0.2 0,0.1 0.1,0.2 0.2,0.2 -0.1,0 -0.1,0 -0.2,0.1 0,0 -0.1,0.1 0,0.1 l 0.1,0.1 h 0.2 c 0,-0.1 0.1,-0.1 0.1,-0.2 0.1,0 0.1,0.1 0.1,0.2 v 0.2 c -0.1,0.2 -0.1,0.3 -0.1,0.5 0.1,0 0.2,0.1 0.2,0.2 0.1,0.1 0.1,0.2 0,0.2 -0.2,0.2 -0.5,0.3 -0.7,0.5 0,0.1 -0.1,0.1 -0.1,0.2 0,0.1 -0.1,0.1 -0.1,0.2 -0.1,0.2 0.1,0.3 0.2,0.3 h 0.3 v -0.1 c 0.1,0.1 0,0.3 0.1,0.4 0,0 0,0.1 0.1,0.1 v 0.2 h -0.7 c -0.1,0 -0.2,0.1 -0.2,0.2 0,0.2 0.2,0.3 0,0.5 h -0.2 c -0.1,0 -0.2,0.1 -0.2,0.2 v 0.9 c 0.1,0.1 0.1,0.2 0.1,0.3 v 0.8 c 0,0 0.1,0 0.1,-0.1 v 0.1 c 0,0.1 0.1,0.1 0.1,0.2 V 38 c 0,0.1 0.1,0.1 0.1,0.2 l 0.2,0.2 h 0.1 v 0.2 c 0,0.1 -0.1,0.2 -0.2,0.2 h -0.2 v 0.1 c 0,0 0.1,0 0.1,0.1 0.1,0 0.1,0.1 0.2,0.1 0,0.1 0,0.2 0.1,0.4 0,0.1 0,0.3 -0.1,0.4 V 40 a 0.47,0.47 0 0 0 0.1,0.6 v 0.1 h 0.1 c 0.1,0 0.3,0 0.4,0.1 -0.2,0.7 -0.1,0.8 -0.1,0.8 M 143,29 c 0,0.1 0,0.1 0,0 0,0.1 0,0.1 0,0 m -0.6,1.7 c 0,-0.1 0,-0.2 0.1,-0.4 0.1,0.1 0.1,0.2 0.2,0.3 -0.1,0.1 -0.1,0.1 -0.2,0.1 h -0.1 m -2.8,4.7 h -0.8 l -0.2,-0.2 c -0.1,-0.1 -0.1,-0.2 -0.2,-0.3 -0.1,-0.1 -0.2,-0.1 -0.2,-0.2 0,-0.1 0.1,-0.2 0.2,-0.3 h 0.1 c 0.1,-0.1 0.1,-0.3 0.2,-0.4 h 0.1 c 0.1,0.1 0.1,0.2 0.2,0.3 0,0.1 0.1,0.1 0.2,0.2 0,0.1 0.1,0.1 0.2,0 h 0.1 c 0.1,-0.1 0.1,-0.2 0.2,-0.2 0.2,0.1 0.1,0.2 0.3,0.4 0,0 -0.1,0 -0.1,0.1 h -0.1 c -0.1,0 -0.2,0.1 -0.3,0.2 0,0.1 -0.1,0.1 -0.1,0.2 l 0.1,0.1 h 0.3 c 0,0 0.1,0 0.1,-0.1 0,0 0.1,0 0.1,-0.1 0.1,0.1 0.1,0.2 0.2,0.3 0,0.1 0,0.1 -0.1,0.1 -0.3,0 -0.4,-0.1 -0.5,-0.1 m -1.3,-2.2 c 0,0 0,-0.1 0.1,-0.1 m 1.1,0.1 c 0.2,0 0.3,0.1 0.4,0 -0.1,0.2 -0.3,0.4 -0.4,0.7 0,0.1 -0.1,0.2 -0.1,0.3 0,0 -0.1,0 -0.1,-0.1 v -0.6 c 0.1,0 0.2,-0.1 0.2,-0.3 m -0.6,-0.4 0.2,0.2 a 0.45,0.45 0 0 0 0,0.5 c -0.1,0.1 -0.2,0.1 -0.3,0.2 -0.1,0 -0.1,0 -0.2,-0.1 v -0.2 c 0.1,-0.1 0.2,-0.1 0.3,-0.2 -0.1,-0.1 -0.1,-0.2 0,-0.4 m -1.4,1.3 c 0,0.1 0,0.1 0,0 0.1,0.1 0.1,0.2 0,0.2 v -0.1 c -0.1,0 -0.1,0 0,-0.1 m -0.5,2.3 c 0.1,0 0.2,0 0.2,0.1 0.1,0.2 0,0.4 -0.3,0.5 -0.1,0 -0.1,0 -0.1,-0.1 0,-0.3 0.1,-0.4 0.2,-0.5 m 19.9,-16.8 c 0,-0.2 -0.2,-0.2 -0.2,-0.4 l 0.1,-0.1 v -0.2 c -0.1,-0.1 -0.1,-0.3 -0.3,-0.4 H 156 l -0.3,0.3 c -0.2,0.2 -0.2,0.4 0.1,0.6 l 0.1,0.1 c 0.1,0.1 0.3,0.2 0.3,0.3 0,0.1 0.1,0.2 0.2,0.2 h 0.3 c 0.2,-0.1 0.2,-0.2 0.2,-0.4 0.1,0.1 0,0.1 0,0 m 36.4,37.3 c 0,-0.1 0.1,-0.1 0.1,-0.2 -0.2,-0.1 -0.3,-0.2 -0.5,-0.2 -0.2,0.1 -0.3,0.2 -0.3,0.3 a 0.55,0.55 0 0 0 0.5,0.3 c 0.1,0 0.2,-0.1 0.2,-0.2 m -1.8,1.5 h -0.2 c -0.1,0 -0.2,0.1 -0.2,0.3 h 0.3 c 0.1,0 0.1,-0.1 0.1,-0.1 0.1,0 0.1,-0.1 0,-0.2 m -1.1,-0.2 c 0,0 -0.1,-0.1 -0.3,-0.1 -0.1,0.1 -0.2,0.1 -0.2,0.2 0,0.1 0,0.2 0.1,0.2 h 0.1 c 0.2,0 0.3,-0.2 0.3,-0.3"
         id="path888" />
      <path
         d="m 194.9,50 c 0.1,-0.1 0.1,-0.1 0.1,-0.2 v -0.1 c -0.1,-0.1 -0.1,-0.1 -0.2,-0.1 h -0.1 c -0.1,0 -0.2,0.1 -0.1,0.2 0,0.1 0,0.2 0.1,0.2 h 0.2 c -0.1,0 0,0 0,0"
         id="path1595" />
      <path
         d="m 192.2,54.2 h 0.2 c 0.1,0 0.1,-0.2 0.1,-0.2 0,0 0,-0.1 -0.1,-0.1 h -0.2 c 0,0.1 -0.1,0.1 0,0.3 0,-0.1 0,0 0,0"
         id="path1593" />
      <path
         d="m 195.4,49 0.1,-0.1 v -0.2 c -0.1,-0.2 -0.2,-0.2 -0.4,-0.1 -0.1,0 -0.1,0.1 -0.2,0.1 -0.1,0.1 0,0.3 0.1,0.4 l 0.2,0.1 c 0.2,-0.1 0.2,-0.2 0.2,-0.2"
         id="path890" />
    </g>
  </g>
</svg>
